<?xml version="1.0" encoding="UTF-8" standalone="no"?>
<!DOCTYPE svg PUBLIC "-//W3C//DTD SVG 1.1//EN"
 "http://www.w3.org/Graphics/SVG/1.1/DTD/svg11.dtd">
<!-- Generated by graphviz version 2.40.1 (20161225.0304)
 -->
<!-- Title: dependencies Pages: 1 -->
<svg width="504pt" height="284pt"
 viewBox="0.00 0.00 504.00 284.00" xmlns="http://www.w3.org/2000/svg" xmlns:xlink="http://www.w3.org/1999/xlink">
<g id="graph0" class="graph" transform="scale(1 1) rotate(0) translate(4 280)">
<title>dependencies</title>
<polygon fill="#ffffff" stroke="transparent" points="-4,4 -4,-280 500,-280 500,4 -4,4"/>
<text text-anchor="start" x="227.0091" y="-42.4" font-family="sans-serif" font-weight="bold" font-size="14.00" fill="#000000">Legend</text>
<polygon fill="#ffffb3" stroke="transparent" points="14,-10 14,-30 34,-30 34,-10 14,-10"/>
<text text-anchor="start" x="37.629" y="-15.4" font-family="sans-serif" font-size="14.00" fill="#000000"> &#160;Declarations</text>
<polygon fill="#8dd3c7" stroke="transparent" points="127,-10 127,-30 147,-30 147,-10 127,-10"/>
<text text-anchor="start" x="150.7251" y="-15.4" font-family="sans-serif" font-size="14.00" fill="#000000"> &#160;Module</text>
<polygon fill="#80b1d3" stroke="transparent" points="213,-10 213,-30 233,-30 233,-10 213,-10"/>
<text text-anchor="start" x="236.7812" y="-15.4" font-family="sans-serif" font-size="14.00" fill="#000000"> &#160;Bootstrap</text>
<polygon fill="#fdb462" stroke="transparent" points="310,-10 310,-30 330,-30 330,-10 310,-10"/>
<text text-anchor="start" x="333.6732" y="-15.4" font-family="sans-serif" font-size="14.00" fill="#000000"> &#160;Providers</text>
<polygon fill="#fb8072" stroke="transparent" points="406,-10 406,-30 426,-30 426,-10 406,-10"/>
<text text-anchor="start" x="429.7258" y="-15.4" font-family="sans-serif" font-size="14.00" fill="#000000"> &#160;Exports</text>
<g id="clust1" class="cluster">
<title>cluster_SharedModule</title>
<polygon fill="none" stroke="#000000" stroke-dasharray="1,5" points="16,-70 16,-268 480,-268 480,-70 16,-70"/>
</g>
<g id="clust2" class="cluster">
<title>cluster_SharedModule_declarations</title>
<polygon fill="none" stroke="#000000" points="30,-78 30,-130 467,-130 467,-78 30,-78"/>
</g>
<g id="clust7" class="cluster">
<title>cluster_SharedModule_exports</title>
<polygon fill="none" stroke="#000000" points="24,-208 24,-260 472,-260 472,-208 24,-208"/>
</g>
<!-- ArraySortPipe -->
<g id="node1" class="node">
<title>ArraySortPipe</title>
<polygon fill="#ffffb3" stroke="#000000" points="459.3641,-122 362.6359,-122 362.6359,-86 459.3641,-86 459.3641,-122"/>
<text text-anchor="middle" x="411" y="-99.8" font-family="Times,serif" font-size="14.00" fill="#000000">ArraySortPipe</text>
</g>
<!-- SharedModule -->
<g id="node4" class="node">
<title>SharedModule</title>
<polygon fill="#8dd3c7" stroke="#000000" points="334.4231,-187 331.4231,-191 310.4231,-191 307.4231,-187 235.5769,-187 235.5769,-151 334.4231,-151 334.4231,-187"/>
<text text-anchor="middle" x="285" y="-164.8" font-family="Times,serif" font-size="14.00" fill="#000000">SharedModule</text>
</g>
<!-- ArraySortPipe&#45;&gt;SharedModule -->
<g id="edge1" class="edge">
<title>ArraySortPipe&#45;&gt;SharedModule</title>
<path fill="none" stroke="#000000" d="M427.5607,-122.0225C427.5607,-139.3734 427.5607,-163 427.5607,-163 427.5607,-163 344.4607,-163 344.4607,-163"/>
<polygon fill="#000000" stroke="#000000" points="344.4607,-159.5001 334.4607,-163 344.4607,-166.5001 344.4607,-159.5001"/>
</g>
<!-- ArrayReversePipe -->
<g id="node2" class="node">
<title>ArrayReversePipe</title>
<polygon fill="#ffffb3" stroke="#000000" points="344.1164,-122 225.8836,-122 225.8836,-86 344.1164,-86 344.1164,-122"/>
<text text-anchor="middle" x="285" y="-99.8" font-family="Times,serif" font-size="14.00" fill="#000000">ArrayReversePipe</text>
</g>
<!-- ArrayReversePipe&#45;&gt;SharedModule -->
<g id="edge2" class="edge">
<title>ArrayReversePipe&#45;&gt;SharedModule</title>
<path fill="none" stroke="#000000" d="M285,-122.1061C285,-122.1061 285,-140.991 285,-140.991"/>
<polygon fill="#000000" stroke="#000000" points="281.5001,-140.9909 285,-150.991 288.5001,-140.991 281.5001,-140.9909"/>
</g>
<!-- ArrayFromObjectKeysPipe -->
<g id="node3" class="node">
<title>ArrayFromObjectKeysPipe</title>
<polygon fill="#ffffb3" stroke="#000000" points="207.9468,-122 38.0532,-122 38.0532,-86 207.9468,-86 207.9468,-122"/>
<text text-anchor="middle" x="123" y="-99.8" font-family="Times,serif" font-size="14.00" fill="#000000">ArrayFromObjectKeysPipe</text>
</g>
<!-- ArrayFromObjectKeysPipe&#45;&gt;SharedModule -->
<g id="edge3" class="edge">
<title>ArrayFromObjectKeysPipe&#45;&gt;SharedModule</title>
<path fill="none" stroke="#000000" d="M149.8245,-122.0225C149.8245,-139.3734 149.8245,-163 149.8245,-163 149.8245,-163 225.4332,-163 225.4332,-163"/>
<polygon fill="#000000" stroke="#000000" points="225.4332,-166.5001 235.4332,-163 225.4332,-159.5001 225.4332,-166.5001"/>
</g>
<!-- ArraySortPipe  -->
<g id="node5" class="node">
<title>ArraySortPipe </title>
<polygon fill="#fb8072" stroke="#000000" points="464.3647,-252 363.6353,-252 363.6353,-216 464.3647,-216 464.3647,-252"/>
<text text-anchor="middle" x="414" y="-229.8" font-family="Times,serif" font-size="14.00" fill="#000000">ArraySortPipe </text>
</g>
<!-- SharedModule&#45;&gt;ArraySortPipe  -->
<g id="edge4" class="edge">
<title>SharedModule&#45;&gt;ArraySortPipe </title>
<path fill="none" stroke="#000000" stroke-dasharray="5,2" d="M334.5172,-175C363.9888,-175 395.6893,-175 395.6893,-175 395.6893,-175 395.6893,-205.9775 395.6893,-205.9775"/>
<polygon fill="#000000" stroke="#000000" points="392.1894,-205.9774 395.6893,-215.9775 399.1894,-205.9775 392.1894,-205.9774"/>
</g>
<!-- ArrayReversePipe  -->
<g id="node6" class="node">
<title>ArrayReversePipe </title>
<polygon fill="#fb8072" stroke="#000000" points="346.1159,-252 223.8841,-252 223.8841,-216 346.1159,-216 346.1159,-252"/>
<text text-anchor="middle" x="285" y="-229.8" font-family="Times,serif" font-size="14.00" fill="#000000">ArrayReversePipe </text>
</g>
<!-- SharedModule&#45;&gt;ArrayReversePipe  -->
<g id="edge5" class="edge">
<title>SharedModule&#45;&gt;ArrayReversePipe </title>
<path fill="none" stroke="#000000" stroke-dasharray="5,2" d="M285,-187.1061C285,-187.1061 285,-205.991 285,-205.991"/>
<polygon fill="#000000" stroke="#000000" points="281.5001,-205.9909 285,-215.991 288.5001,-205.991 281.5001,-205.9909"/>
</g>
<!-- ArrayFromObjectKeysPipe  -->
<g id="node7" class="node">
<title>ArrayFromObjectKeysPipe </title>
<polygon fill="#fb8072" stroke="#000000" points="205.9474,-252 32.0526,-252 32.0526,-216 205.9474,-216 205.9474,-252"/>
<text text-anchor="middle" x="119" y="-229.8" font-family="Times,serif" font-size="14.00" fill="#000000">ArrayFromObjectKeysPipe </text>
</g>
<!-- SharedModule&#45;&gt;ArrayFromObjectKeysPipe  -->
<g id="edge6" class="edge">
<title>SharedModule&#45;&gt;ArrayFromObjectKeysPipe </title>
<path fill="none" stroke="#000000" stroke-dasharray="5,2" d="M235.2962,-175C178.6817,-175 93.9255,-175 93.9255,-175 93.9255,-175 93.9255,-205.9775 93.9255,-205.9775"/>
<polygon fill="#000000" stroke="#000000" points="90.4256,-205.9774 93.9255,-215.9775 97.4256,-205.9775 90.4256,-205.9774"/>
</g>
</g>
</svg>
