<?xml version="1.0" encoding="UTF-8" standalone="no"?>
<!DOCTYPE svg PUBLIC "-//W3C//DTD SVG 1.1//EN"
 "http://www.w3.org/Graphics/SVG/1.1/DTD/svg11.dtd">
<!-- Generated by graphviz version 2.40.1 (20161225.0304)
 -->
<!-- Title: dependencies Pages: 1 -->
<svg width="1528pt" height="211pt"
 viewBox="0.00 0.00 1528.00 211.00" xmlns="http://www.w3.org/2000/svg" xmlns:xlink="http://www.w3.org/1999/xlink">
<g id="graph0" class="graph" transform="scale(1 1) rotate(0) translate(4 207)">
<title>dependencies</title>
<polygon fill="#ffffff" stroke="transparent" points="-4,4 -4,-207 1524,-207 1524,4 -4,4"/>
<text text-anchor="start" x="739.0091" y="-42.4" font-family="sans-serif" font-weight="bold" font-size="14.00" fill="#000000">Legend</text>
<polygon fill="#ffffb3" stroke="transparent" points="526,-10 526,-30 546,-30 546,-10 526,-10"/>
<text text-anchor="start" x="549.629" y="-15.4" font-family="sans-serif" font-size="14.00" fill="#000000"> &#160;Declarations</text>
<polygon fill="#8dd3c7" stroke="transparent" points="639,-10 639,-30 659,-30 659,-10 639,-10"/>
<text text-anchor="start" x="662.7251" y="-15.4" font-family="sans-serif" font-size="14.00" fill="#000000"> &#160;Module</text>
<polygon fill="#80b1d3" stroke="transparent" points="725,-10 725,-30 745,-30 745,-10 725,-10"/>
<text text-anchor="start" x="748.7812" y="-15.4" font-family="sans-serif" font-size="14.00" fill="#000000"> &#160;Bootstrap</text>
<polygon fill="#fdb462" stroke="transparent" points="822,-10 822,-30 842,-30 842,-10 822,-10"/>
<text text-anchor="start" x="845.6732" y="-15.4" font-family="sans-serif" font-size="14.00" fill="#000000"> &#160;Providers</text>
<polygon fill="#fb8072" stroke="transparent" points="918,-10 918,-30 938,-30 938,-10 918,-10"/>
<text text-anchor="start" x="941.7258" y="-15.4" font-family="sans-serif" font-size="14.00" fill="#000000"> &#160;Exports</text>
<g id="clust1" class="cluster">
<title>cluster_MarketModule</title>
<polygon fill="none" stroke="#000000" stroke-dasharray="1,5" points="8,-70 8,-195 1512,-195 1512,-70 8,-70"/>
</g>
<g id="clust2" class="cluster">
<title>cluster_MarketModule_declarations</title>
<polygon fill="none" stroke="#000000" points="756,-78 756,-130 1504,-130 1504,-78 756,-78"/>
</g>
<g id="clust7" class="cluster">
<title>cluster_MarketModule_imports</title>
<polygon fill="none" stroke="#000000" points="470,-78 470,-130 748,-130 748,-78 470,-78"/>
</g>
<g id="clust10" class="cluster">
<title>cluster_MarketModule_providers</title>
<polygon fill="none" stroke="#000000" points="16,-78 16,-130 462,-130 462,-78 16,-78"/>
</g>
<!-- MarketTableComponent -->
<g id="node1" class="node">
<title>MarketTableComponent</title>
<polygon fill="#ffffb3" stroke="#000000" points="1495.6302,-122 1342.3698,-122 1342.3698,-86 1495.6302,-86 1495.6302,-122"/>
<text text-anchor="middle" x="1419" y="-99.8" font-family="Times,serif" font-size="14.00" fill="#000000">MarketTableComponent</text>
</g>
<!-- MarketModule -->
<g id="node5" class="node">
<title>MarketModule</title>
<polygon fill="#8dd3c7" stroke="#000000" points="740.9748,-187 737.9748,-191 716.9748,-191 713.9748,-187 641.0252,-187 641.0252,-151 740.9748,-151 740.9748,-187"/>
<text text-anchor="middle" x="691" y="-164.8" font-family="Times,serif" font-size="14.00" fill="#000000">MarketModule</text>
</g>
<!-- MarketTableComponent&#45;&gt;MarketModule -->
<g id="edge1" class="edge">
<title>MarketTableComponent&#45;&gt;MarketModule</title>
<path fill="none" stroke="#000000" d="M1419,-122.0109C1419,-144.4852 1419,-180 1419,-180 1419,-180 751.0384,-180 751.0384,-180"/>
<polygon fill="#000000" stroke="#000000" points="751.0384,-176.5001 741.0384,-180 751.0384,-183.5001 751.0384,-176.5001"/>
</g>
<!-- MarketToolbarComponent -->
<g id="node2" class="node">
<title>MarketToolbarComponent</title>
<polygon fill="#ffffb3" stroke="#000000" points="1324.0758,-122 1157.9242,-122 1157.9242,-86 1324.0758,-86 1324.0758,-122"/>
<text text-anchor="middle" x="1241" y="-99.8" font-family="Times,serif" font-size="14.00" fill="#000000">MarketToolbarComponent</text>
</g>
<!-- MarketToolbarComponent&#45;&gt;MarketModule -->
<g id="edge2" class="edge">
<title>MarketToolbarComponent&#45;&gt;MarketModule</title>
<path fill="none" stroke="#000000" d="M1241,-122.1289C1241,-142.5724 1241,-173 1241,-173 1241,-173 751.2669,-173 751.2669,-173"/>
<polygon fill="#000000" stroke="#000000" points="751.2669,-169.5001 741.2669,-173 751.2668,-176.5001 751.2669,-169.5001"/>
</g>
<!-- MarketCategoriesComponent -->
<g id="node3" class="node">
<title>MarketCategoriesComponent</title>
<polygon fill="#ffffb3" stroke="#000000" points="1139.6246,-122 958.3754,-122 958.3754,-86 1139.6246,-86 1139.6246,-122"/>
<text text-anchor="middle" x="1049" y="-99.8" font-family="Times,serif" font-size="14.00" fill="#000000">MarketCategoriesComponent</text>
</g>
<!-- MarketCategoriesComponent&#45;&gt;MarketModule -->
<g id="edge3" class="edge">
<title>MarketCategoriesComponent&#45;&gt;MarketModule</title>
<path fill="none" stroke="#000000" d="M1049,-122.2667C1049,-140.5552 1049,-166 1049,-166 1049,-166 751.1553,-166 751.1553,-166"/>
<polygon fill="#000000" stroke="#000000" points="751.1554,-162.5001 741.1553,-166 751.1553,-169.5001 751.1554,-162.5001"/>
</g>
<!-- MarketContainerComponent -->
<g id="node4" class="node">
<title>MarketContainerComponent</title>
<polygon fill="#ffffb3" stroke="#000000" points="940.465,-122 763.535,-122 763.535,-86 940.465,-86 940.465,-122"/>
<text text-anchor="middle" x="852" y="-99.8" font-family="Times,serif" font-size="14.00" fill="#000000">MarketContainerComponent</text>
</g>
<!-- MarketContainerComponent&#45;&gt;MarketModule -->
<g id="edge4" class="edge">
<title>MarketContainerComponent&#45;&gt;MarketModule</title>
<path fill="none" stroke="#000000" d="M852,-122.0091C852,-138.0494 852,-159 852,-159 852,-159 751.0589,-159 751.0589,-159"/>
<polygon fill="#000000" stroke="#000000" points="751.0589,-155.5001 741.0589,-159 751.0588,-162.5001 751.0589,-155.5001"/>
</g>
<!-- SharedModule -->
<g id="node6" class="node">
<title>SharedModule</title>
<polygon fill="#8dd3c7" stroke="#000000" points="740.4231,-122 737.4231,-126 716.4231,-126 713.4231,-122 641.5769,-122 641.5769,-86 740.4231,-86 740.4231,-122"/>
<text text-anchor="middle" x="691" y="-99.8" font-family="Times,serif" font-size="14.00" fill="#000000">SharedModule</text>
</g>
<!-- SharedModule&#45;&gt;MarketModule -->
<g id="edge5" class="edge">
<title>SharedModule&#45;&gt;MarketModule</title>
<path fill="none" stroke="#000000" d="M691,-122.1061C691,-122.1061 691,-140.991 691,-140.991"/>
<polygon fill="#000000" stroke="#000000" points="687.5001,-140.9909 691,-150.991 694.5001,-140.991 687.5001,-140.9909"/>
</g>
<!-- MarketRoutingModule -->
<g id="node7" class="node">
<title>MarketRoutingModule</title>
<polygon fill="#8dd3c7" stroke="#000000" points="623.5926,-122 620.5926,-126 599.5926,-126 596.5926,-122 478.4074,-122 478.4074,-86 623.5926,-86 623.5926,-122"/>
<text text-anchor="middle" x="551" y="-99.8" font-family="Times,serif" font-size="14.00" fill="#000000">MarketRoutingModule</text>
</g>
<!-- MarketRoutingModule&#45;&gt;MarketModule -->
<g id="edge6" class="edge">
<title>MarketRoutingModule&#45;&gt;MarketModule</title>
<path fill="none" stroke="#000000" d="M551,-122.0091C551,-138.0494 551,-159 551,-159 551,-159 630.8522,-159 630.8522,-159"/>
<polygon fill="#000000" stroke="#000000" points="630.8523,-162.5001 640.8522,-159 630.8522,-155.5001 630.8523,-162.5001"/>
</g>
<!-- MarketService -->
<g id="node8" class="node">
<title>MarketService</title>
<ellipse fill="#fdb462" stroke="#000000" cx="386" cy="-104" rx="67.7529" ry="18"/>
<text text-anchor="middle" x="386" y="-99.8" font-family="Times,serif" font-size="14.00" fill="#000000">MarketService</text>
</g>
<!-- MarketService&#45;&gt;MarketModule -->
<g id="edge7" class="edge">
<title>MarketService&#45;&gt;MarketModule</title>
<path fill="none" stroke="#000000" d="M386,-122.2667C386,-140.5552 386,-166 386,-166 386,-166 630.977,-166 630.977,-166"/>
<polygon fill="#000000" stroke="#000000" points="630.977,-169.5001 640.977,-166 630.9769,-162.5001 630.977,-169.5001"/>
</g>
<!-- MarketStream -->
<g id="node9" class="node">
<title>MarketStream</title>
<ellipse fill="#fdb462" stroke="#000000" cx="234" cy="-104" rx="66.0473" ry="18"/>
<text text-anchor="middle" x="234" y="-99.8" font-family="Times,serif" font-size="14.00" fill="#000000">MarketStream</text>
</g>
<!-- MarketStream&#45;&gt;MarketModule -->
<g id="edge8" class="edge">
<title>MarketStream&#45;&gt;MarketModule</title>
<path fill="none" stroke="#000000" d="M234,-122.1289C234,-142.5724 234,-173 234,-173 234,-173 630.7857,-173 630.7857,-173"/>
<polygon fill="#000000" stroke="#000000" points="630.7858,-176.5001 640.7857,-173 630.7857,-169.5001 630.7858,-176.5001"/>
</g>
<!-- MarketGuard -->
<g id="node10" class="node">
<title>MarketGuard</title>
<ellipse fill="#fdb462" stroke="#000000" cx="87" cy="-104" rx="63.1015" ry="18"/>
<text text-anchor="middle" x="87" y="-99.8" font-family="Times,serif" font-size="14.00" fill="#000000">MarketGuard</text>
</g>
<!-- MarketGuard&#45;&gt;MarketModule -->
<g id="edge9" class="edge">
<title>MarketGuard&#45;&gt;MarketModule</title>
<path fill="none" stroke="#000000" d="M87,-122.0109C87,-144.4852 87,-180 87,-180 87,-180 630.8005,-180 630.8005,-180"/>
<polygon fill="#000000" stroke="#000000" points="630.8005,-183.5001 640.8005,-180 630.8005,-176.5001 630.8005,-183.5001"/>
</g>
</g>
</svg>
