<?xml version="1.0" encoding="UTF-8" standalone="no"?>
<!DOCTYPE svg PUBLIC "-//W3C//DTD SVG 1.1//EN"
 "http://www.w3.org/Graphics/SVG/1.1/DTD/svg11.dtd">
<!-- Generated by graphviz version 2.40.1 (20161225.0304)
 -->
<!-- Title: dependencies Pages: 1 -->
<svg width="1241pt" height="211pt"
 viewBox="0.00 0.00 1241.00 211.00" xmlns="http://www.w3.org/2000/svg" xmlns:xlink="http://www.w3.org/1999/xlink">
<g id="graph0" class="graph" transform="scale(1 1) rotate(0) translate(4 207)">
<title>dependencies</title>
<polygon fill="#ffffff" stroke="transparent" points="-4,4 -4,-207 1237,-207 1237,4 -4,4"/>
<text text-anchor="start" x="595.5091" y="-42.4" font-family="sans-serif" font-weight="bold" font-size="14.00" fill="#000000">Legend</text>
<polygon fill="#ffffb3" stroke="transparent" points="382.5,-10 382.5,-30 402.5,-30 402.5,-10 382.5,-10"/>
<text text-anchor="start" x="406.129" y="-15.4" font-family="sans-serif" font-size="14.00" fill="#000000"> &#160;Declarations</text>
<polygon fill="#8dd3c7" stroke="transparent" points="495.5,-10 495.5,-30 515.5,-30 515.5,-10 495.5,-10"/>
<text text-anchor="start" x="519.2251" y="-15.4" font-family="sans-serif" font-size="14.00" fill="#000000"> &#160;Module</text>
<polygon fill="#80b1d3" stroke="transparent" points="581.5,-10 581.5,-30 601.5,-30 601.5,-10 581.5,-10"/>
<text text-anchor="start" x="605.2812" y="-15.4" font-family="sans-serif" font-size="14.00" fill="#000000"> &#160;Bootstrap</text>
<polygon fill="#fdb462" stroke="transparent" points="678.5,-10 678.5,-30 698.5,-30 698.5,-10 678.5,-10"/>
<text text-anchor="start" x="702.1732" y="-15.4" font-family="sans-serif" font-size="14.00" fill="#000000"> &#160;Providers</text>
<polygon fill="#fb8072" stroke="transparent" points="774.5,-10 774.5,-30 794.5,-30 794.5,-10 774.5,-10"/>
<text text-anchor="start" x="798.2258" y="-15.4" font-family="sans-serif" font-size="14.00" fill="#000000"> &#160;Exports</text>
<g id="clust1" class="cluster">
<title>cluster_StatusModule</title>
<polygon fill="none" stroke="#000000" stroke-dasharray="1,5" points="8,-70 8,-195 1225,-195 1225,-70 8,-70"/>
</g>
<g id="clust2" class="cluster">
<title>cluster_StatusModule_declarations</title>
<polygon fill="none" stroke="#000000" points="582,-78 582,-130 1217,-130 1217,-78 582,-78"/>
</g>
<g id="clust7" class="cluster">
<title>cluster_StatusModule_imports</title>
<polygon fill="none" stroke="#000000" points="303,-78 303,-130 574,-130 574,-78 303,-78"/>
</g>
<g id="clust10" class="cluster">
<title>cluster_StatusModule_providers</title>
<polygon fill="none" stroke="#000000" points="16,-78 16,-130 295,-130 295,-78 16,-78"/>
</g>
<!-- PipDisplayPipe -->
<g id="node1" class="node">
<title>PipDisplayPipe</title>
<polygon fill="#ffffb3" stroke="#000000" points="1208.6081,-122 1105.3919,-122 1105.3919,-86 1208.6081,-86 1208.6081,-122"/>
<text text-anchor="middle" x="1157" y="-99.8" font-family="Times,serif" font-size="14.00" fill="#000000">PipDisplayPipe</text>
</g>
<!-- StatusModule -->
<g id="node5" class="node">
<title>StatusModule</title>
<polygon fill="#8dd3c7" stroke="#000000" points="625.7731,-187 622.7731,-191 601.7731,-191 598.7731,-187 532.2269,-187 532.2269,-151 625.7731,-151 625.7731,-187"/>
<text text-anchor="middle" x="579" y="-164.8" font-family="Times,serif" font-size="14.00" fill="#000000">StatusModule</text>
</g>
<!-- PipDisplayPipe&#45;&gt;StatusModule -->
<g id="edge1" class="edge">
<title>PipDisplayPipe&#45;&gt;StatusModule</title>
<path fill="none" stroke="#000000" d="M1157,-122.2921C1157,-144.2057 1157,-178 1157,-178 1157,-178 635.8106,-178 635.8106,-178"/>
<polygon fill="#000000" stroke="#000000" points="635.8106,-174.5001 625.8106,-178 635.8105,-181.5001 635.8106,-174.5001"/>
</g>
<!-- StatusContainerComponent -->
<g id="node2" class="node">
<title>StatusContainerComponent</title>
<polygon fill="#ffffb3" stroke="#000000" points="1087.2632,-122 916.7368,-122 916.7368,-86 1087.2632,-86 1087.2632,-122"/>
<text text-anchor="middle" x="1002" y="-99.8" font-family="Times,serif" font-size="14.00" fill="#000000">StatusContainerComponent</text>
</g>
<!-- StatusContainerComponent&#45;&gt;StatusModule -->
<g id="edge2" class="edge">
<title>StatusContainerComponent&#45;&gt;StatusModule</title>
<path fill="none" stroke="#000000" d="M1002,-122.1061C1002,-141.3391 1002,-169 1002,-169 1002,-169 635.8846,-169 635.8846,-169"/>
<polygon fill="#000000" stroke="#000000" points="635.8846,-165.5001 625.8846,-169 635.8846,-172.5001 635.8846,-165.5001"/>
</g>
<!-- PipsDisplayComponent -->
<g id="node3" class="node">
<title>PipsDisplayComponent</title>
<polygon fill="#ffffb3" stroke="#000000" points="898.4972,-122 749.5028,-122 749.5028,-86 898.4972,-86 898.4972,-122"/>
<text text-anchor="middle" x="824" y="-99.8" font-family="Times,serif" font-size="14.00" fill="#000000">PipsDisplayComponent</text>
</g>
<!-- PipsDisplayComponent&#45;&gt;StatusModule -->
<g id="edge3" class="edge">
<title>PipsDisplayComponent&#45;&gt;StatusModule</title>
<path fill="none" stroke="#000000" d="M824,-122.027C824,-138.3976 824,-160 824,-160 824,-160 635.9486,-160 635.9486,-160"/>
<polygon fill="#000000" stroke="#000000" points="635.9486,-156.5001 625.9486,-160 635.9485,-163.5001 635.9486,-156.5001"/>
</g>
<!-- ShipStatusComponent -->
<g id="node4" class="node">
<title>ShipStatusComponent</title>
<polygon fill="#ffffb3" stroke="#000000" points="731.7288,-122 590.2712,-122 590.2712,-86 731.7288,-86 731.7288,-122"/>
<text text-anchor="middle" x="661" y="-99.8" font-family="Times,serif" font-size="14.00" fill="#000000">ShipStatusComponent</text>
</g>
<!-- ShipStatusComponent&#45;&gt;StatusModule -->
<g id="edge4" class="edge">
<title>ShipStatusComponent&#45;&gt;StatusModule</title>
<path fill="none" stroke="#000000" d="M608.1361,-122.1061C608.1361,-122.1061 608.1361,-140.991 608.1361,-140.991"/>
<polygon fill="#000000" stroke="#000000" points="604.6361,-140.9909 608.1361,-150.991 611.6361,-140.991 604.6361,-140.9909"/>
</g>
<!-- StatusRoutingModule -->
<g id="node6" class="node">
<title>StatusRoutingModule</title>
<polygon fill="#8dd3c7" stroke="#000000" points="566.3906,-122 563.3906,-126 542.3906,-126 539.3906,-122 427.6094,-122 427.6094,-86 566.3906,-86 566.3906,-122"/>
<text text-anchor="middle" x="497" y="-99.8" font-family="Times,serif" font-size="14.00" fill="#000000">StatusRoutingModule</text>
</g>
<!-- StatusRoutingModule&#45;&gt;StatusModule -->
<g id="edge5" class="edge">
<title>StatusRoutingModule&#45;&gt;StatusModule</title>
<path fill="none" stroke="#000000" d="M549.2795,-122.1061C549.2795,-122.1061 549.2795,-140.991 549.2795,-140.991"/>
<polygon fill="#000000" stroke="#000000" points="545.7795,-140.9909 549.2795,-150.991 552.7795,-140.991 545.7795,-140.9909"/>
</g>
<!-- SharedModule -->
<g id="node7" class="node">
<title>SharedModule</title>
<polygon fill="#8dd3c7" stroke="#000000" points="409.4231,-122 406.4231,-126 385.4231,-126 382.4231,-122 310.5769,-122 310.5769,-86 409.4231,-86 409.4231,-122"/>
<text text-anchor="middle" x="360" y="-99.8" font-family="Times,serif" font-size="14.00" fill="#000000">SharedModule</text>
</g>
<!-- SharedModule&#45;&gt;StatusModule -->
<g id="edge6" class="edge">
<title>SharedModule&#45;&gt;StatusModule</title>
<path fill="none" stroke="#000000" d="M360,-122.027C360,-138.3976 360,-160 360,-160 360,-160 522.019,-160 522.019,-160"/>
<polygon fill="#000000" stroke="#000000" points="522.019,-163.5001 532.019,-160 522.019,-156.5001 522.019,-163.5001"/>
</g>
<!-- StatusService -->
<g id="node8" class="node">
<title>StatusService</title>
<ellipse fill="#fdb462" stroke="#000000" cx="223" cy="-104" rx="63.6967" ry="18"/>
<text text-anchor="middle" x="223" y="-99.8" font-family="Times,serif" font-size="14.00" fill="#000000">StatusService</text>
</g>
<!-- StatusService&#45;&gt;StatusModule -->
<g id="edge7" class="edge">
<title>StatusService&#45;&gt;StatusModule</title>
<path fill="none" stroke="#000000" d="M223,-122.1061C223,-141.3391 223,-169 223,-169 223,-169 522.0931,-169 522.0931,-169"/>
<polygon fill="#000000" stroke="#000000" points="522.0932,-172.5001 532.0931,-169 522.0931,-165.5001 522.0932,-172.5001"/>
</g>
<!-- StatusGuard -->
<g id="node9" class="node">
<title>StatusGuard</title>
<ellipse fill="#fdb462" stroke="#000000" cx="83" cy="-104" rx="58.5463" ry="18"/>
<text text-anchor="middle" x="83" y="-99.8" font-family="Times,serif" font-size="14.00" fill="#000000">StatusGuard</text>
</g>
<!-- StatusGuard&#45;&gt;StatusModule -->
<g id="edge8" class="edge">
<title>StatusGuard&#45;&gt;StatusModule</title>
<path fill="none" stroke="#000000" d="M83,-122.2921C83,-144.2057 83,-178 83,-178 83,-178 521.8904,-178 521.8904,-178"/>
<polygon fill="#000000" stroke="#000000" points="521.8904,-181.5001 531.8904,-178 521.8903,-174.5001 521.8904,-181.5001"/>
</g>
</g>
</svg>
