<?xml version="1.0" encoding="UTF-8" standalone="no"?>
<!DOCTYPE svg PUBLIC "-//W3C//DTD SVG 1.1//EN"
 "http://www.w3.org/Graphics/SVG/1.1/DTD/svg11.dtd">
<!-- Generated by graphviz version 2.40.1 (20161225.0304)
 -->
<!-- Title: dependencies Pages: 1 -->
<svg width="635pt" height="284pt"
 viewBox="0.00 0.00 635.00 284.00" xmlns="http://www.w3.org/2000/svg" xmlns:xlink="http://www.w3.org/1999/xlink">
<g id="graph0" class="graph" transform="scale(1 1) rotate(0) translate(4 280)">
<title>dependencies</title>
<polygon fill="#ffffff" stroke="transparent" points="-4,4 -4,-280 631,-280 631,4 -4,4"/>
<text text-anchor="start" x="292.5091" y="-42.4" font-family="sans-serif" font-weight="bold" font-size="14.00" fill="#000000">Legend</text>
<polygon fill="#ffffb3" stroke="transparent" points="79.5,-10 79.5,-30 99.5,-30 99.5,-10 79.5,-10"/>
<text text-anchor="start" x="103.129" y="-15.4" font-family="sans-serif" font-size="14.00" fill="#000000"> &#160;Declarations</text>
<polygon fill="#8dd3c7" stroke="transparent" points="192.5,-10 192.5,-30 212.5,-30 212.5,-10 192.5,-10"/>
<text text-anchor="start" x="216.2251" y="-15.4" font-family="sans-serif" font-size="14.00" fill="#000000"> &#160;Module</text>
<polygon fill="#80b1d3" stroke="transparent" points="278.5,-10 278.5,-30 298.5,-30 298.5,-10 278.5,-10"/>
<text text-anchor="start" x="302.2812" y="-15.4" font-family="sans-serif" font-size="14.00" fill="#000000"> &#160;Bootstrap</text>
<polygon fill="#fdb462" stroke="transparent" points="375.5,-10 375.5,-30 395.5,-30 395.5,-10 375.5,-10"/>
<text text-anchor="start" x="399.1732" y="-15.4" font-family="sans-serif" font-size="14.00" fill="#000000"> &#160;Providers</text>
<polygon fill="#fb8072" stroke="transparent" points="471.5,-10 471.5,-30 491.5,-30 491.5,-10 471.5,-10"/>
<text text-anchor="start" x="495.2258" y="-15.4" font-family="sans-serif" font-size="14.00" fill="#000000"> &#160;Exports</text>
<g id="clust1" class="cluster">
<title>cluster_MarketPipesModule</title>
<polygon fill="none" stroke="#000000" stroke-dasharray="1,5" points="8,-70 8,-268 619,-268 619,-70 8,-70"/>
</g>
<g id="clust2" class="cluster">
<title>cluster_MarketPipesModule_declarations</title>
<polygon fill="none" stroke="#000000" points="25,-78 25,-130 604,-130 604,-78 25,-78"/>
</g>
<g id="clust9" class="cluster">
<title>cluster_MarketPipesModule_exports</title>
<polygon fill="none" stroke="#000000" points="16,-208 16,-260 611,-260 611,-208 16,-208"/>
</g>
<!-- BadSellPipe -->
<g id="node1" class="node">
<title>BadSellPipe</title>
<polygon fill="#ffffb3" stroke="#000000" points="595.7177,-122 510.2823,-122 510.2823,-86 595.7177,-86 595.7177,-122"/>
<text text-anchor="middle" x="553" y="-99.8" font-family="Times,serif" font-size="14.00" fill="#000000">BadSellPipe</text>
</g>
<!-- MarketPipesModule -->
<g id="node6" class="node">
<title>MarketPipesModule</title>
<polygon fill="#8dd3c7" stroke="#000000" points="355.3076,-187 352.3076,-191 331.3076,-191 328.3076,-187 224.6924,-187 224.6924,-151 355.3076,-151 355.3076,-187"/>
<text text-anchor="middle" x="290" y="-164.8" font-family="Times,serif" font-size="14.00" fill="#000000">MarketPipesModule</text>
</g>
<!-- BadSellPipe&#45;&gt;MarketPipesModule -->
<g id="edge1" class="edge">
<title>BadSellPipe&#45;&gt;MarketPipesModule</title>
<path fill="none" stroke="#000000" d="M568.6196,-122.0225C568.6196,-139.3734 568.6196,-163 568.6196,-163 568.6196,-163 365.3239,-163 365.3239,-163"/>
<polygon fill="#000000" stroke="#000000" points="365.3239,-159.5001 355.3239,-163 365.3239,-166.5001 365.3239,-159.5001"/>
</g>
<!-- GetCommoditiesPipe -->
<g id="node2" class="node">
<title>GetCommoditiesPipe</title>
<polygon fill="#ffffb3" stroke="#000000" points="492.0491,-122 355.9509,-122 355.9509,-86 492.0491,-86 492.0491,-122"/>
<text text-anchor="middle" x="424" y="-99.8" font-family="Times,serif" font-size="14.00" fill="#000000">GetCommoditiesPipe</text>
</g>
<!-- GetCommoditiesPipe&#45;&gt;MarketPipesModule -->
<g id="edge2" class="edge">
<title>GetCommoditiesPipe&#45;&gt;MarketPipesModule</title>
<path fill="none" stroke="#000000" d="M355.9237,-104C350.1224,-104 346.4095,-104 346.4095,-104 346.4095,-104 346.4095,-140.8939 346.4095,-140.8939"/>
<polygon fill="#000000" stroke="#000000" points="342.9096,-140.8938 346.4095,-150.8939 349.9096,-140.8939 342.9096,-140.8938"/>
</g>
<!-- GoodBuyPipe -->
<g id="node3" class="node">
<title>GoodBuyPipe</title>
<polygon fill="#ffffb3" stroke="#000000" points="337.8316,-122 242.1684,-122 242.1684,-86 337.8316,-86 337.8316,-122"/>
<text text-anchor="middle" x="290" y="-99.8" font-family="Times,serif" font-size="14.00" fill="#000000">GoodBuyPipe</text>
</g>
<!-- GoodBuyPipe&#45;&gt;MarketPipesModule -->
<g id="edge3" class="edge">
<title>GoodBuyPipe&#45;&gt;MarketPipesModule</title>
<path fill="none" stroke="#000000" d="M290,-122.1061C290,-122.1061 290,-140.991 290,-140.991"/>
<polygon fill="#000000" stroke="#000000" points="286.5001,-140.9909 290,-150.991 293.5001,-140.991 286.5001,-140.9909"/>
</g>
<!-- IsDisabledPipe -->
<g id="node4" class="node">
<title>IsDisabledPipe</title>
<polygon fill="#ffffb3" stroke="#000000" points="224.2549,-122 123.7451,-122 123.7451,-86 224.2549,-86 224.2549,-122"/>
<text text-anchor="middle" x="174" y="-99.8" font-family="Times,serif" font-size="14.00" fill="#000000">IsDisabledPipe</text>
</g>
<!-- IsDisabledPipe&#45;&gt;MarketPipesModule -->
<g id="edge4" class="edge">
<title>IsDisabledPipe&#45;&gt;MarketPipesModule</title>
<path fill="none" stroke="#000000" d="M224.2794,-104C229.866,-104 233.5905,-104 233.5905,-104 233.5905,-104 233.5905,-140.8939 233.5905,-140.8939"/>
<polygon fill="#000000" stroke="#000000" points="230.0905,-140.8938 233.5905,-150.8939 237.0905,-140.8939 230.0905,-140.8938"/>
</g>
<!-- ProfitPipe -->
<g id="node5" class="node">
<title>ProfitPipe</title>
<polygon fill="#ffffb3" stroke="#000000" points="105.2732,-122 32.7268,-122 32.7268,-86 105.2732,-86 105.2732,-122"/>
<text text-anchor="middle" x="69" y="-99.8" font-family="Times,serif" font-size="14.00" fill="#000000">ProfitPipe</text>
</g>
<!-- ProfitPipe&#45;&gt;MarketPipesModule -->
<g id="edge5" class="edge">
<title>ProfitPipe&#45;&gt;MarketPipesModule</title>
<path fill="none" stroke="#000000" d="M77.6288,-122.0225C77.6288,-139.3734 77.6288,-163 77.6288,-163 77.6288,-163 214.8384,-163 214.8384,-163"/>
<polygon fill="#000000" stroke="#000000" points="214.8384,-166.5001 224.8384,-163 214.8383,-159.5001 214.8384,-166.5001"/>
</g>
<!-- BadSellPipe  -->
<g id="node7" class="node">
<title>BadSellPipe </title>
<polygon fill="#fb8072" stroke="#000000" points="603.2178,-252 514.7822,-252 514.7822,-216 603.2178,-216 603.2178,-252"/>
<text text-anchor="middle" x="559" y="-229.8" font-family="Times,serif" font-size="14.00" fill="#000000">BadSellPipe </text>
</g>
<!-- MarketPipesModule&#45;&gt;BadSellPipe  -->
<g id="edge6" class="edge">
<title>MarketPipesModule&#45;&gt;BadSellPipe </title>
<path fill="none" stroke="#000000" stroke-dasharray="5,2" d="M355.4561,-175C430.013,-175 541.6304,-175 541.6304,-175 541.6304,-175 541.6304,-205.9775 541.6304,-205.9775"/>
<polygon fill="#000000" stroke="#000000" points="538.1305,-205.9774 541.6304,-215.9775 545.1305,-205.9775 538.1305,-205.9774"/>
</g>
<!-- GetCommoditiesPipe  -->
<g id="node8" class="node">
<title>GetCommoditiesPipe </title>
<polygon fill="#fb8072" stroke="#000000" points="497.0484,-252 356.9516,-252 356.9516,-216 497.0484,-216 497.0484,-252"/>
<text text-anchor="middle" x="427" y="-229.8" font-family="Times,serif" font-size="14.00" fill="#000000">GetCommoditiesPipe </text>
</g>
<!-- MarketPipesModule&#45;&gt;GetCommoditiesPipe  -->
<g id="edge7" class="edge">
<title>MarketPipesModule&#45;&gt;GetCommoditiesPipe </title>
<path fill="none" stroke="#000000" stroke-dasharray="5,2" d="M347.2845,-187.1061C347.2845,-206.3391 347.2845,-234 347.2845,-234 347.2845,-234 348.2303,-234 348.2303,-234"/>
<polygon fill="#000000" stroke="#000000" points="346.742,-237.5001 356.742,-234 346.742,-230.5001 346.742,-237.5001"/>
</g>
<!-- GoodBuyPipe  -->
<g id="node9" class="node">
<title>GoodBuyPipe </title>
<polygon fill="#fb8072" stroke="#000000" points="339.3311,-252 240.6689,-252 240.6689,-216 339.3311,-216 339.3311,-252"/>
<text text-anchor="middle" x="290" y="-229.8" font-family="Times,serif" font-size="14.00" fill="#000000">GoodBuyPipe </text>
</g>
<!-- MarketPipesModule&#45;&gt;GoodBuyPipe  -->
<g id="edge8" class="edge">
<title>MarketPipesModule&#45;&gt;GoodBuyPipe </title>
<path fill="none" stroke="#000000" stroke-dasharray="5,2" d="M290,-187.1061C290,-187.1061 290,-205.991 290,-205.991"/>
<polygon fill="#000000" stroke="#000000" points="286.5001,-205.9909 290,-215.991 293.5001,-205.991 286.5001,-205.9909"/>
</g>
<!-- IsDisabledPipe  -->
<g id="node10" class="node">
<title>IsDisabledPipe </title>
<polygon fill="#fb8072" stroke="#000000" points="222.2549,-252 117.7451,-252 117.7451,-216 222.2549,-216 222.2549,-252"/>
<text text-anchor="middle" x="170" y="-229.8" font-family="Times,serif" font-size="14.00" fill="#000000">IsDisabledPipe </text>
</g>
<!-- MarketPipesModule&#45;&gt;IsDisabledPipe  -->
<g id="edge9" class="edge">
<title>MarketPipesModule&#45;&gt;IsDisabledPipe </title>
<path fill="none" stroke="#000000" stroke-dasharray="5,2" d="M232.7155,-187.1061C232.7155,-206.3391 232.7155,-234 232.7155,-234 232.7155,-234 231.6798,-234 231.6798,-234"/>
<polygon fill="#000000" stroke="#000000" points="232.3593,-230.5001 222.3593,-234 232.3592,-237.5001 232.3593,-230.5001"/>
</g>
<!-- ProfitPipe  -->
<g id="node11" class="node">
<title>ProfitPipe </title>
<polygon fill="#fb8072" stroke="#000000" points="100.2733,-252 23.7267,-252 23.7267,-216 100.2733,-216 100.2733,-252"/>
<text text-anchor="middle" x="62" y="-229.8" font-family="Times,serif" font-size="14.00" fill="#000000">ProfitPipe </text>
</g>
<!-- MarketPipesModule&#45;&gt;ProfitPipe  -->
<g id="edge10" class="edge">
<title>MarketPipesModule&#45;&gt;ProfitPipe </title>
<path fill="none" stroke="#000000" stroke-dasharray="5,2" d="M224.5732,-175C155.0744,-175 55.1212,-175 55.1212,-175 55.1212,-175 55.1212,-205.9775 55.1212,-205.9775"/>
<polygon fill="#000000" stroke="#000000" points="51.6213,-205.9774 55.1212,-215.9775 58.6213,-205.9775 51.6213,-205.9774"/>
</g>
</g>
</svg>
