<?xml version="1.0" encoding="UTF-8" standalone="no"?>
<!DOCTYPE svg PUBLIC "-//W3C//DTD SVG 1.1//EN"
 "http://www.w3.org/Graphics/SVG/1.1/DTD/svg11.dtd">
<!-- Generated by graphviz version 2.40.1 (20161225.0304)
 -->
<!-- Title: dependencies Pages: 1 -->
<svg width="504pt" height="349pt"
 viewBox="0.00 0.00 504.00 349.00" xmlns="http://www.w3.org/2000/svg" xmlns:xlink="http://www.w3.org/1999/xlink">
<g id="graph0" class="graph" transform="scale(1 1) rotate(0) translate(4 345)">
<title>dependencies</title>
<polygon fill="#ffffff" stroke="transparent" points="-4,4 -4,-345 500,-345 500,4 -4,4"/>
<text text-anchor="start" x="227.0091" y="-42.4" font-family="sans-serif" font-weight="bold" font-size="14.00" fill="#000000">Legend</text>
<polygon fill="#ffffb3" stroke="transparent" points="14,-10 14,-30 34,-30 34,-10 14,-10"/>
<text text-anchor="start" x="37.629" y="-15.4" font-family="sans-serif" font-size="14.00" fill="#000000"> &#160;Declarations</text>
<polygon fill="#8dd3c7" stroke="transparent" points="127,-10 127,-30 147,-30 147,-10 127,-10"/>
<text text-anchor="start" x="150.7251" y="-15.4" font-family="sans-serif" font-size="14.00" fill="#000000"> &#160;Module</text>
<polygon fill="#80b1d3" stroke="transparent" points="213,-10 213,-30 233,-30 233,-10 213,-10"/>
<text text-anchor="start" x="236.7812" y="-15.4" font-family="sans-serif" font-size="14.00" fill="#000000"> &#160;Bootstrap</text>
<polygon fill="#fdb462" stroke="transparent" points="310,-10 310,-30 330,-30 330,-10 310,-10"/>
<text text-anchor="start" x="333.6732" y="-15.4" font-family="sans-serif" font-size="14.00" fill="#000000"> &#160;Providers</text>
<polygon fill="#fb8072" stroke="transparent" points="406,-10 406,-30 426,-30 426,-10 406,-10"/>
<text text-anchor="start" x="429.7258" y="-15.4" font-family="sans-serif" font-size="14.00" fill="#000000"> &#160;Exports</text>
<g id="clust1" class="cluster">
<title>cluster_LocationModule</title>
<polygon fill="none" stroke="#000000" stroke-dasharray="1,5" points="77,-70 77,-333 419,-333 419,-70 77,-70"/>
</g>
<g id="clust2" class="cluster">
<title>cluster_LocationModule_declarations</title>
<polygon fill="none" stroke="#000000" points="263,-143 263,-195 411,-195 411,-143 263,-143"/>
</g>
<g id="clust3" class="cluster">
<title>cluster_LocationModule_LocationComponent_providers</title>
<polygon fill="none" stroke="#000000" points="269,-78 269,-130 405,-130 405,-78 269,-78"/>
</g>
<g id="clust4" class="cluster">
<title>cluster_LocationModule_imports</title>
<polygon fill="none" stroke="#000000" points="85,-143 85,-195 255,-195 255,-143 85,-143"/>
</g>
<g id="clust5" class="cluster">
<title>cluster_LocationModule_exports</title>
<polygon fill="none" stroke="#000000" points="178,-273 178,-325 328,-325 328,-273 178,-273"/>
</g>
<!-- LocationComponent -->
<g id="node1" class="node">
<title>LocationComponent</title>
<polygon fill="#ffffb3" stroke="#000000" points="402.5954,-187 271.4046,-187 271.4046,-151 402.5954,-151 402.5954,-187"/>
<text text-anchor="middle" x="337" y="-164.8" font-family="Times,serif" font-size="14.00" fill="#000000">LocationComponent</text>
</g>
<!-- LocationModule -->
<g id="node2" class="node">
<title>LocationModule</title>
<polygon fill="#8dd3c7" stroke="#000000" points="307.8132,-252 304.8132,-256 283.8132,-256 280.8132,-252 198.1868,-252 198.1868,-216 307.8132,-216 307.8132,-252"/>
<text text-anchor="middle" x="253" y="-229.8" font-family="Times,serif" font-size="14.00" fill="#000000">LocationModule</text>
</g>
<!-- LocationComponent&#45;&gt;LocationModule -->
<g id="edge1" class="edge">
<title>LocationComponent&#45;&gt;LocationModule</title>
<path fill="none" stroke="#000000" d="M289.5544,-187.1061C289.5544,-187.1061 289.5544,-205.991 289.5544,-205.991"/>
<polygon fill="#000000" stroke="#000000" points="286.0544,-205.9909 289.5544,-215.991 293.0544,-205.991 286.0544,-205.9909"/>
</g>
<!-- LocationComponent  -->
<g id="node5" class="node">
<title>LocationComponent </title>
<polygon fill="#fb8072" stroke="#000000" points="320.096,-317 185.904,-317 185.904,-281 320.096,-281 320.096,-317"/>
<text text-anchor="middle" x="253" y="-294.8" font-family="Times,serif" font-size="14.00" fill="#000000">LocationComponent </text>
</g>
<!-- LocationModule&#45;&gt;LocationComponent  -->
<g id="edge4" class="edge">
<title>LocationModule&#45;&gt;LocationComponent </title>
<path fill="none" stroke="#000000" stroke-dasharray="5,2" d="M253,-252.1061C253,-252.1061 253,-270.991 253,-270.991"/>
<polygon fill="#000000" stroke="#000000" points="249.5001,-270.9909 253,-280.991 256.5001,-270.991 249.5001,-270.9909"/>
</g>
<!-- LocationApi -->
<g id="node3" class="node">
<title>LocationApi</title>
<ellipse fill="#fdb462" stroke="#000000" cx="337" cy="-104" rx="59.6916" ry="18"/>
<text text-anchor="middle" x="337" y="-99.8" font-family="Times,serif" font-size="14.00" fill="#000000">LocationApi</text>
</g>
<!-- LocationApi&#45;&gt;LocationComponent -->
<g id="edge2" class="edge">
<title>LocationApi&#45;&gt;LocationComponent</title>
<path fill="none" stroke="#000000" d="M337,-122.1061C337,-122.1061 337,-140.991 337,-140.991"/>
<polygon fill="#000000" stroke="#000000" points="333.5001,-140.9909 337,-150.991 340.5001,-140.991 333.5001,-140.9909"/>
</g>
<!-- LocationRoutingModule -->
<g id="node4" class="node">
<title>LocationRoutingModule</title>
<polygon fill="#8dd3c7" stroke="#000000" points="247.4312,-187 244.4312,-191 223.4312,-191 220.4312,-187 92.5688,-187 92.5688,-151 247.4312,-151 247.4312,-187"/>
<text text-anchor="middle" x="170" y="-164.8" font-family="Times,serif" font-size="14.00" fill="#000000">LocationRoutingModule</text>
</g>
<!-- LocationRoutingModule&#45;&gt;LocationModule -->
<g id="edge3" class="edge">
<title>LocationRoutingModule&#45;&gt;LocationModule</title>
<path fill="none" stroke="#000000" d="M222.7795,-187.1061C222.7795,-187.1061 222.7795,-205.991 222.7795,-205.991"/>
<polygon fill="#000000" stroke="#000000" points="219.2795,-205.9909 222.7795,-215.991 226.2795,-205.991 219.2795,-205.9909"/>
</g>
</g>
</svg>
