<?xml version="1.0" encoding="UTF-8" standalone="no"?>
<!DOCTYPE svg PUBLIC "-//W3C//DTD SVG 1.1//EN"
 "http://www.w3.org/Graphics/SVG/1.1/DTD/svg11.dtd">
<!-- Generated by graphviz version 2.40.1 (20161225.0304)
 -->
<!-- Title: dependencies Pages: 1 -->
<svg width="779pt" height="284pt"
 viewBox="0.00 0.00 779.00 284.00" xmlns="http://www.w3.org/2000/svg" xmlns:xlink="http://www.w3.org/1999/xlink">
<g id="graph0" class="graph" transform="scale(1 1) rotate(0) translate(4 280)">
<title>dependencies</title>
<polygon fill="#ffffff" stroke="transparent" points="-4,4 -4,-280 775,-280 775,4 -4,4"/>
<text text-anchor="start" x="364.5091" y="-42.4" font-family="sans-serif" font-weight="bold" font-size="14.00" fill="#000000">Legend</text>
<polygon fill="#ffffb3" stroke="transparent" points="151.5,-10 151.5,-30 171.5,-30 171.5,-10 151.5,-10"/>
<text text-anchor="start" x="175.129" y="-15.4" font-family="sans-serif" font-size="14.00" fill="#000000"> &#160;Declarations</text>
<polygon fill="#8dd3c7" stroke="transparent" points="264.5,-10 264.5,-30 284.5,-30 284.5,-10 264.5,-10"/>
<text text-anchor="start" x="288.2251" y="-15.4" font-family="sans-serif" font-size="14.00" fill="#000000"> &#160;Module</text>
<polygon fill="#80b1d3" stroke="transparent" points="350.5,-10 350.5,-30 370.5,-30 370.5,-10 350.5,-10"/>
<text text-anchor="start" x="374.2812" y="-15.4" font-family="sans-serif" font-size="14.00" fill="#000000"> &#160;Bootstrap</text>
<polygon fill="#fdb462" stroke="transparent" points="447.5,-10 447.5,-30 467.5,-30 467.5,-10 447.5,-10"/>
<text text-anchor="start" x="471.1732" y="-15.4" font-family="sans-serif" font-size="14.00" fill="#000000"> &#160;Providers</text>
<polygon fill="#fb8072" stroke="transparent" points="543.5,-10 543.5,-30 563.5,-30 563.5,-10 543.5,-10"/>
<text text-anchor="start" x="567.2258" y="-15.4" font-family="sans-serif" font-size="14.00" fill="#000000"> &#160;Exports</text>
<g id="clust1" class="cluster">
<title>cluster_AppModule</title>
<polygon fill="none" stroke="#000000" stroke-dasharray="1,5" points="8,-70 8,-268 763,-268 763,-70 8,-70"/>
</g>
<g id="clust2" class="cluster">
<title>cluster_AppModule_declarations</title>
<polygon fill="none" stroke="#000000" points="633,-78 633,-130 755,-130 755,-78 633,-78"/>
</g>
<g id="clust4" class="cluster">
<title>cluster_AppModule_imports</title>
<polygon fill="none" stroke="#000000" points="16,-78 16,-130 625,-130 625,-78 16,-78"/>
</g>
<g id="clust6" class="cluster">
<title>cluster_AppModule_bootstrap</title>
<polygon fill="none" stroke="#000000" points="331,-208 331,-260 455,-260 455,-208 331,-208"/>
</g>
<!-- AppComponent -->
<g id="node1" class="node">
<title>AppComponent</title>
<polygon fill="#ffffb3" stroke="#000000" points="746.9399,-122 641.0601,-122 641.0601,-86 746.9399,-86 746.9399,-122"/>
<text text-anchor="middle" x="694" y="-99.8" font-family="Times,serif" font-size="14.00" fill="#000000">AppComponent</text>
</g>
<!-- AppModule -->
<g id="node2" class="node">
<title>AppModule</title>
<polygon fill="#8dd3c7" stroke="#000000" points="434.6571,-187 431.6571,-191 410.6571,-191 407.6571,-187 351.3429,-187 351.3429,-151 434.6571,-151 434.6571,-187"/>
<text text-anchor="middle" x="393" y="-164.8" font-family="Times,serif" font-size="14.00" fill="#000000">AppModule</text>
</g>
<!-- AppComponent&#45;&gt;AppModule -->
<g id="edge1" class="edge">
<title>AppComponent&#45;&gt;AppModule</title>
<path fill="none" stroke="#000000" d="M694,-122.2843C694,-143.3211 694,-175 694,-175 694,-175 444.8528,-175 444.8528,-175"/>
<polygon fill="#000000" stroke="#000000" points="444.8528,-171.5001 434.8528,-175 444.8527,-178.5001 444.8528,-171.5001"/>
</g>
<!-- AppComponent  -->
<g id="node8" class="node">
<title>AppComponent </title>
<polygon fill="#80b1d3" stroke="#000000" points="447.439,-252 338.561,-252 338.561,-216 447.439,-216 447.439,-252"/>
<text text-anchor="middle" x="393" y="-229.8" font-family="Times,serif" font-size="14.00" fill="#000000">AppComponent </text>
</g>
<!-- AppModule&#45;&gt;AppComponent  -->
<g id="edge7" class="edge">
<title>AppModule&#45;&gt;AppComponent </title>
<path fill="none" stroke="#000000" stroke-dasharray="1,5" d="M393,-187.1061C393,-187.1061 393,-205.991 393,-205.991"/>
<polygon fill="#000000" stroke="#000000" points="389.5001,-205.9909 393,-215.991 396.5001,-205.991 389.5001,-205.9909"/>
</g>
<!-- SharedModule -->
<g id="node3" class="node">
<title>SharedModule</title>
<polygon fill="#8dd3c7" stroke="#000000" points="617.4231,-122 614.4231,-126 593.4231,-126 590.4231,-122 518.5769,-122 518.5769,-86 617.4231,-86 617.4231,-122"/>
<text text-anchor="middle" x="568" y="-99.8" font-family="Times,serif" font-size="14.00" fill="#000000">SharedModule</text>
</g>
<!-- SharedModule&#45;&gt;AppModule -->
<g id="edge2" class="edge">
<title>SharedModule&#45;&gt;AppModule</title>
<path fill="none" stroke="#000000" d="M568,-122.0225C568,-139.3734 568,-163 568,-163 568,-163 444.9169,-163 444.9169,-163"/>
<polygon fill="#000000" stroke="#000000" points="444.9169,-159.5001 434.9169,-163 444.9168,-166.5001 444.9169,-159.5001"/>
</g>
<!-- MarketModule -->
<g id="node4" class="node">
<title>MarketModule</title>
<polygon fill="#8dd3c7" stroke="#000000" points="500.9748,-122 497.9748,-126 476.9748,-126 473.9748,-122 401.0252,-122 401.0252,-86 500.9748,-86 500.9748,-122"/>
<text text-anchor="middle" x="451" y="-99.8" font-family="Times,serif" font-size="14.00" fill="#000000">MarketModule</text>
</g>
<!-- MarketModule&#45;&gt;AppModule -->
<g id="edge3" class="edge">
<title>MarketModule&#45;&gt;AppModule</title>
<path fill="none" stroke="#000000" d="M417.9204,-122.1061C417.9204,-122.1061 417.9204,-140.991 417.9204,-140.991"/>
<polygon fill="#000000" stroke="#000000" points="414.4205,-140.9909 417.9204,-150.991 421.4205,-140.991 414.4205,-140.9909"/>
</g>
<!-- StatusModule -->
<g id="node5" class="node">
<title>StatusModule</title>
<polygon fill="#8dd3c7" stroke="#000000" points="382.7731,-122 379.7731,-126 358.7731,-126 355.7731,-122 289.2269,-122 289.2269,-86 382.7731,-86 382.7731,-122"/>
<text text-anchor="middle" x="336" y="-99.8" font-family="Times,serif" font-size="14.00" fill="#000000">StatusModule</text>
</g>
<!-- StatusModule&#45;&gt;AppModule -->
<g id="edge4" class="edge">
<title>StatusModule&#45;&gt;AppModule</title>
<path fill="none" stroke="#000000" d="M367.0291,-122.1061C367.0291,-122.1061 367.0291,-140.991 367.0291,-140.991"/>
<polygon fill="#000000" stroke="#000000" points="363.5292,-140.9909 367.0291,-150.991 370.5292,-140.991 363.5292,-140.9909"/>
</g>
<!-- JournalModule -->
<g id="node6" class="node">
<title>JournalModule</title>
<polygon fill="#8dd3c7" stroke="#000000" points="271.2605,-122 268.2605,-126 247.2605,-126 244.2605,-122 170.7395,-122 170.7395,-86 271.2605,-86 271.2605,-122"/>
<text text-anchor="middle" x="221" y="-99.8" font-family="Times,serif" font-size="14.00" fill="#000000">JournalModule</text>
</g>
<!-- JournalModule&#45;&gt;AppModule -->
<g id="edge5" class="edge">
<title>JournalModule&#45;&gt;AppModule</title>
<path fill="none" stroke="#000000" d="M221,-122.0225C221,-139.3734 221,-163 221,-163 221,-163 340.9241,-163 340.9241,-163"/>
<polygon fill="#000000" stroke="#000000" points="340.9241,-166.5001 350.9241,-163 340.924,-159.5001 340.9241,-166.5001"/>
</g>
<!-- AppRoutingModule -->
<g id="node7" class="node">
<title>AppRoutingModule</title>
<polygon fill="#8dd3c7" stroke="#000000" points="152.2744,-122 149.2744,-126 128.2744,-126 125.2744,-122 23.7256,-122 23.7256,-86 152.2744,-86 152.2744,-122"/>
<text text-anchor="middle" x="88" y="-99.8" font-family="Times,serif" font-size="14.00" fill="#000000">AppRoutingModule</text>
</g>
<!-- AppRoutingModule&#45;&gt;AppModule -->
<g id="edge6" class="edge">
<title>AppRoutingModule&#45;&gt;AppModule</title>
<path fill="none" stroke="#000000" d="M88,-122.2843C88,-143.3211 88,-175 88,-175 88,-175 341.2306,-175 341.2306,-175"/>
<polygon fill="#000000" stroke="#000000" points="341.2306,-178.5001 351.2306,-175 341.2305,-171.5001 341.2306,-178.5001"/>
</g>
</g>
</svg>
