<?xml version="1.0" encoding="UTF-8" standalone="no"?>
<!DOCTYPE svg PUBLIC "-//W3C//DTD SVG 1.1//EN"
 "http://www.w3.org/Graphics/SVG/1.1/DTD/svg11.dtd">
<!-- Generated by graphviz version 2.40.1 (20161225.0304)
 -->
<!-- Title: dependencies Pages: 1 -->
<svg width="4938pt" height="442pt"
 viewBox="0.00 0.00 4938.00 442.00" xmlns="http://www.w3.org/2000/svg" xmlns:xlink="http://www.w3.org/1999/xlink">
<g id="graph0" class="graph" transform="scale(1 1) rotate(0) translate(4 438)">
<title>dependencies</title>
<polygon fill="#ffffff" stroke="transparent" points="-4,4 -4,-438 4934,-438 4934,4 -4,4"/>
<text text-anchor="start" x="2444.0091" y="-42.4" font-family="sans-serif" font-weight="bold" font-size="14.00" fill="#000000">Legend</text>
<polygon fill="#ffffb3" stroke="transparent" points="2231,-10 2231,-30 2251,-30 2251,-10 2231,-10"/>
<text text-anchor="start" x="2254.629" y="-15.4" font-family="sans-serif" font-size="14.00" fill="#000000"> &#160;Declarations</text>
<polygon fill="#8dd3c7" stroke="transparent" points="2344,-10 2344,-30 2364,-30 2364,-10 2344,-10"/>
<text text-anchor="start" x="2367.7251" y="-15.4" font-family="sans-serif" font-size="14.00" fill="#000000"> &#160;Module</text>
<polygon fill="#80b1d3" stroke="transparent" points="2430,-10 2430,-30 2450,-30 2450,-10 2430,-10"/>
<text text-anchor="start" x="2453.7812" y="-15.4" font-family="sans-serif" font-size="14.00" fill="#000000"> &#160;Bootstrap</text>
<polygon fill="#fdb462" stroke="transparent" points="2527,-10 2527,-30 2547,-30 2547,-10 2527,-10"/>
<text text-anchor="start" x="2550.6732" y="-15.4" font-family="sans-serif" font-size="14.00" fill="#000000"> &#160;Providers</text>
<polygon fill="#fb8072" stroke="transparent" points="2623,-10 2623,-30 2643,-30 2643,-10 2623,-10"/>
<text text-anchor="start" x="2646.7258" y="-15.4" font-family="sans-serif" font-size="14.00" fill="#000000"> &#160;Exports</text>
<g id="clust1" class="cluster">
<title>cluster_AppModule</title>
<polygon fill="none" stroke="#000000" stroke-dasharray="1,5" points="2510,-146 2510,-426 3036,-426 3036,-146 2510,-146"/>
</g>
<g id="clust2" class="cluster">
<title>cluster_AppModule_declarations</title>
<polygon fill="none" stroke="#000000" points="2906,-230 2906,-282 3028,-282 3028,-230 2906,-230"/>
</g>
<g id="clust4" class="cluster">
<title>cluster_AppModule_imports</title>
<polygon fill="none" stroke="#000000" points="2518,-154 2518,-282 2898,-282 2898,-154 2518,-154"/>
</g>
<g id="clust6" class="cluster">
<title>cluster_AppModule_bootstrap</title>
<polygon fill="none" stroke="#000000" points="2705,-366 2705,-418 2829,-418 2829,-366 2705,-366"/>
</g>
<g id="clust14" class="cluster">
<title>cluster_JournalModule</title>
<polygon fill="none" stroke="#000000" stroke-dasharray="1,5" points="2471,-70 2471,-138 2681,-138 2681,-70 2471,-70"/>
</g>
<g id="clust15" class="cluster">
<title>cluster_JournalModule_declarations</title>
<polygon fill="none" stroke="#000000" points="2479,-78 2479,-130 2673,-130 2673,-78 2479,-78"/>
</g>
<g id="clust27" class="cluster">
<title>cluster_LocationModule</title>
<polygon fill="none" stroke="#000000" stroke-dasharray="1,5" points="3961,-70 3961,-358 4303,-358 4303,-70 3961,-70"/>
</g>
<g id="clust28" class="cluster">
<title>cluster_LocationModule_declarations</title>
<polygon fill="none" stroke="#000000" points="4147,-154 4147,-206 4295,-206 4295,-154 4147,-154"/>
</g>
<g id="clust29" class="cluster">
<title>cluster_LocationModule_LocationComponent_providers</title>
<polygon fill="none" stroke="#000000" points="4153,-78 4153,-130 4289,-130 4289,-78 4153,-78"/>
</g>
<g id="clust30" class="cluster">
<title>cluster_LocationModule_imports</title>
<polygon fill="none" stroke="#000000" points="3969,-154 3969,-206 4139,-206 4139,-154 3969,-154"/>
</g>
<g id="clust31" class="cluster">
<title>cluster_LocationModule_exports</title>
<polygon fill="none" stroke="#000000" points="4062,-298 4062,-350 4212,-350 4212,-298 4062,-298"/>
</g>
<g id="clust40" class="cluster">
<title>cluster_MarketModule</title>
<polygon fill="none" stroke="#000000" stroke-dasharray="1,5" points="8,-146 8,-214 1396,-214 1396,-146 8,-146"/>
</g>
<g id="clust41" class="cluster">
<title>cluster_MarketModule_declarations</title>
<polygon fill="none" stroke="#000000" points="640,-154 640,-206 1388,-206 1388,-154 640,-154"/>
</g>
<g id="clust46" class="cluster">
<title>cluster_MarketModule_imports</title>
<polygon fill="none" stroke="#000000" points="470,-154 470,-206 632,-206 632,-154 470,-154"/>
</g>
<g id="clust49" class="cluster">
<title>cluster_MarketModule_providers</title>
<polygon fill="none" stroke="#000000" points="16,-154 16,-206 462,-206 462,-154 16,-154"/>
</g>
<g id="clust50" class="cluster">
<title>cluster_MarketPipesModule</title>
<polygon fill="none" stroke="#000000" stroke-dasharray="1,5" points="4311,-70 4311,-290 4922,-290 4922,-70 4311,-70"/>
</g>
<g id="clust51" class="cluster">
<title>cluster_MarketPipesModule_declarations</title>
<polygon fill="none" stroke="#000000" points="4326,-78 4326,-130 4905,-130 4905,-78 4326,-78"/>
</g>
<g id="clust58" class="cluster">
<title>cluster_MarketPipesModule_exports</title>
<polygon fill="none" stroke="#000000" points="4319,-230 4319,-282 4914,-282 4914,-230 4319,-230"/>
</g>
<g id="clust67" class="cluster">
<title>cluster_SharedModule</title>
<polygon fill="none" stroke="#000000" stroke-dasharray="1,5" points="3044,-222 3044,-290 3953,-290 3953,-222 3044,-222"/>
</g>
<g id="clust68" class="cluster">
<title>cluster_SharedModule_declarations</title>
<polygon fill="none" stroke="#000000" points="3508,-230 3508,-282 3945,-282 3945,-230 3508,-230"/>
</g>
<g id="clust73" class="cluster">
<title>cluster_SharedModule_exports</title>
<polygon fill="none" stroke="#000000" points="3052,-230 3052,-282 3500,-282 3500,-230 3052,-230"/>
</g>
<g id="clust76" class="cluster">
<title>cluster_StatusModule</title>
<polygon fill="none" stroke="#000000" stroke-dasharray="1,5" points="1404,-146 1404,-214 2502,-214 2502,-146 1404,-146"/>
</g>
<g id="clust77" class="cluster">
<title>cluster_StatusModule_declarations</title>
<polygon fill="none" stroke="#000000" points="1861,-154 1861,-206 2494,-206 2494,-154 1861,-154"/>
</g>
<g id="clust82" class="cluster">
<title>cluster_StatusModule_imports</title>
<polygon fill="none" stroke="#000000" points="1699,-154 1699,-206 1853,-206 1853,-154 1699,-154"/>
</g>
<g id="clust85" class="cluster">
<title>cluster_StatusModule_providers</title>
<polygon fill="none" stroke="#000000" points="1412,-154 1412,-206 1691,-206 1691,-154 1412,-154"/>
</g>
<!-- AppComponent -->
<g id="node1" class="node">
<title>AppComponent</title>
<polygon fill="#ffffb3" stroke="#000000" points="3019.9399,-274 2914.0601,-274 2914.0601,-238 3019.9399,-238 3019.9399,-274"/>
<text text-anchor="middle" x="2967" y="-251.8" font-family="Times,serif" font-size="14.00" fill="#000000">AppComponent</text>
</g>
<!-- AppModule -->
<g id="node2" class="node">
<title>AppModule</title>
<polygon fill="#8dd3c7" stroke="#000000" points="2808.6571,-342 2805.6571,-346 2784.6571,-346 2781.6571,-342 2725.3429,-342 2725.3429,-306 2808.6571,-306 2808.6571,-342"/>
<text text-anchor="middle" x="2767" y="-319.8" font-family="Times,serif" font-size="14.00" fill="#000000">AppModule</text>
</g>
<!-- AppComponent&#45;&gt;AppModule -->
<g id="edge1" class="edge">
<title>AppComponent&#45;&gt;AppModule</title>
<path fill="none" stroke="#000000" d="M2914.0928,-262C2866.9693,-262 2805.4203,-262 2805.4203,-262 2805.4203,-262 2805.4203,-295.7333 2805.4203,-295.7333"/>
<polygon fill="#000000" stroke="#000000" points="2801.9204,-295.7333 2805.4203,-305.7333 2808.9204,-295.7333 2801.9204,-295.7333"/>
</g>
<!-- AppComponent  -->
<g id="node8" class="node">
<title>AppComponent </title>
<polygon fill="#80b1d3" stroke="#000000" points="2821.439,-410 2712.561,-410 2712.561,-374 2821.439,-374 2821.439,-410"/>
<text text-anchor="middle" x="2767" y="-387.8" font-family="Times,serif" font-size="14.00" fill="#000000">AppComponent </text>
</g>
<!-- AppModule&#45;&gt;AppComponent  -->
<g id="edge7" class="edge">
<title>AppModule&#45;&gt;AppComponent </title>
<path fill="none" stroke="#000000" stroke-dasharray="1,5" d="M2767,-342.2228C2767,-342.2228 2767,-363.7269 2767,-363.7269"/>
<polygon fill="#000000" stroke="#000000" points="2763.5001,-363.7269 2767,-373.7269 2770.5001,-363.727 2763.5001,-363.7269"/>
</g>
<!-- SharedModule -->
<g id="node3" class="node">
<title>SharedModule</title>
<polygon fill="#8dd3c7" stroke="#000000" points="2890.4231,-198 2887.4231,-202 2866.4231,-202 2863.4231,-198 2791.5769,-198 2791.5769,-162 2890.4231,-162 2890.4231,-198"/>
<text text-anchor="middle" x="2841" y="-175.8" font-family="Times,serif" font-size="14.00" fill="#000000">SharedModule</text>
</g>
<!-- SharedModule&#45;&gt;AppModule -->
<g id="edge2" class="edge">
<title>SharedModule&#45;&gt;AppModule</title>
<path fill="none" stroke="#000000" d="M2802.0125,-198.2377C2802.0125,-198.2377 2802.0125,-295.9104 2802.0125,-295.9104"/>
<polygon fill="#000000" stroke="#000000" points="2798.5126,-295.9103 2802.0125,-305.9104 2805.5126,-295.9104 2798.5126,-295.9103"/>
</g>
<!-- MarketModule -->
<g id="node4" class="node">
<title>MarketModule</title>
<polygon fill="#8dd3c7" stroke="#000000" points="2625.9748,-274 2622.9748,-278 2601.9748,-278 2598.9748,-274 2526.0252,-274 2526.0252,-238 2625.9748,-238 2625.9748,-274"/>
<text text-anchor="middle" x="2576" y="-251.8" font-family="Times,serif" font-size="14.00" fill="#000000">MarketModule</text>
</g>
<!-- SharedModule&#45;&gt;MarketModule -->
<g id="edge17" class="edge">
<title>SharedModule&#45;&gt;MarketModule</title>
<path fill="none" stroke="#000000" d="M2795.1968,-198.2819C2795.1968,-213.9478 2795.1968,-234 2795.1968,-234 2795.1968,-234 2576,-234 2576,-234 2576,-234 2576,-234.3832 2576,-234.3832"/>
<polygon fill="#000000" stroke="#000000" points="2572.5003,-227.832 2576,-237.8321 2579.5003,-227.8322 2572.5003,-227.832"/>
</g>
<!-- StatusModule -->
<g id="node5" class="node">
<title>StatusModule</title>
<polygon fill="#8dd3c7" stroke="#000000" points="2737.7731,-274 2734.7731,-278 2713.7731,-278 2710.7731,-274 2644.2269,-274 2644.2269,-238 2737.7731,-238 2737.7731,-274"/>
<text text-anchor="middle" x="2691" y="-251.8" font-family="Times,serif" font-size="14.00" fill="#000000">StatusModule</text>
</g>
<!-- SharedModule&#45;&gt;StatusModule -->
<g id="edge43" class="edge">
<title>SharedModule&#45;&gt;StatusModule</title>
<path fill="none" stroke="#000000" d="M2798.6046,-198.0267C2798.6046,-218.7672 2798.6046,-250 2798.6046,-250 2798.6046,-250 2747.8839,-250 2747.8839,-250"/>
<polygon fill="#000000" stroke="#000000" points="2747.884,-246.5001 2737.8839,-250 2747.8839,-253.5001 2747.884,-246.5001"/>
</g>
<!-- ArraySortPipe  -->
<g id="node37" class="node">
<title>ArraySortPipe </title>
<polygon fill="#fb8072" stroke="#000000" points="3492.3647,-274 3391.6353,-274 3391.6353,-238 3492.3647,-238 3492.3647,-274"/>
<text text-anchor="middle" x="3442" y="-251.8" font-family="Times,serif" font-size="14.00" fill="#000000">ArraySortPipe </text>
</g>
<!-- SharedModule&#45;&gt;ArraySortPipe  -->
<g id="edge35" class="edge">
<title>SharedModule&#45;&gt;ArraySortPipe </title>
<path fill="none" stroke="#000000" stroke-dasharray="5,2" d="M2890.4377,-183C3034.2023,-183 3442,-183 3442,-183 3442,-183 3442,-227.9551 3442,-227.9551"/>
<polygon fill="#000000" stroke="#000000" points="3438.5001,-227.955 3442,-237.9551 3445.5001,-227.9551 3438.5001,-227.955"/>
</g>
<!-- ArrayReversePipe  -->
<g id="node38" class="node">
<title>ArrayReversePipe </title>
<polygon fill="#fb8072" stroke="#000000" points="3374.1159,-274 3251.8841,-274 3251.8841,-238 3374.1159,-238 3374.1159,-274"/>
<text text-anchor="middle" x="3313" y="-251.8" font-family="Times,serif" font-size="14.00" fill="#000000">ArrayReversePipe </text>
</g>
<!-- SharedModule&#45;&gt;ArrayReversePipe  -->
<g id="edge36" class="edge">
<title>SharedModule&#45;&gt;ArrayReversePipe </title>
<path fill="none" stroke="#000000" stroke-dasharray="5,2" d="M2890.6202,-188C3011.8044,-188 3313,-188 3313,-188 3313,-188 3313,-227.7772 3313,-227.7772"/>
<polygon fill="#000000" stroke="#000000" points="3309.5001,-227.7772 3313,-237.7772 3316.5001,-227.7773 3309.5001,-227.7772"/>
</g>
<!-- ArrayFromObjectKeysPipe  -->
<g id="node39" class="node">
<title>ArrayFromObjectKeysPipe </title>
<polygon fill="#fb8072" stroke="#000000" points="3233.9474,-274 3060.0526,-274 3060.0526,-238 3233.9474,-238 3233.9474,-274"/>
<text text-anchor="middle" x="3147" y="-251.8" font-family="Times,serif" font-size="14.00" fill="#000000">ArrayFromObjectKeysPipe </text>
</g>
<!-- SharedModule&#45;&gt;ArrayFromObjectKeysPipe  -->
<g id="edge37" class="edge">
<title>SharedModule&#45;&gt;ArrayFromObjectKeysPipe </title>
<path fill="none" stroke="#000000" stroke-dasharray="5,2" d="M2890.5043,-193C2977.1089,-193 3147,-193 3147,-193 3147,-193 3147,-227.7778 3147,-227.7778"/>
<polygon fill="#000000" stroke="#000000" points="3143.5001,-227.7778 3147,-237.7778 3150.5001,-227.7778 3143.5001,-227.7778"/>
</g>
<!-- MarketModule&#45;&gt;AppModule -->
<g id="edge3" class="edge">
<title>MarketModule&#45;&gt;AppModule</title>
<path fill="none" stroke="#000000" d="M2576,-274.2921C2576,-296.2057 2576,-330 2576,-330 2576,-330 2715.0842,-330 2715.0842,-330"/>
<polygon fill="#000000" stroke="#000000" points="2715.0843,-333.5001 2725.0842,-330 2715.0842,-326.5001 2715.0843,-333.5001"/>
</g>
<!-- StatusModule&#45;&gt;AppModule -->
<g id="edge4" class="edge">
<title>StatusModule&#45;&gt;AppModule</title>
<path fill="none" stroke="#000000" d="M2731.5291,-274.2228C2731.5291,-274.2228 2731.5291,-295.7269 2731.5291,-295.7269"/>
<polygon fill="#000000" stroke="#000000" points="2728.0292,-295.7269 2731.5291,-305.7269 2735.0292,-295.727 2728.0292,-295.7269"/>
</g>
<!-- JournalModule -->
<g id="node6" class="node">
<title>JournalModule</title>
<polygon fill="#8dd3c7" stroke="#000000" points="2626.2605,-198 2623.2605,-202 2602.2605,-202 2599.2605,-198 2525.7395,-198 2525.7395,-162 2626.2605,-162 2626.2605,-198"/>
<text text-anchor="middle" x="2576" y="-175.8" font-family="Times,serif" font-size="14.00" fill="#000000">JournalModule</text>
</g>
<!-- JournalModule&#45;&gt;AppModule -->
<g id="edge5" class="edge">
<title>JournalModule&#45;&gt;AppModule</title>
<path fill="none" stroke="#000000" d="M2626.5048,-180C2631.7717,-180 2635.2469,-180 2635.2469,-180 2635.2469,-180 2635.2469,-318 2635.2469,-318 2635.2469,-318 2715.3125,-318 2715.3125,-318"/>
<polygon fill="#000000" stroke="#000000" points="2715.3125,-321.5001 2725.3125,-318 2715.3124,-314.5001 2715.3125,-321.5001"/>
</g>
<!-- AppRoutingModule -->
<g id="node7" class="node">
<title>AppRoutingModule</title>
<polygon fill="#8dd3c7" stroke="#000000" points="2773.2744,-198 2770.2744,-202 2749.2744,-202 2746.2744,-198 2644.7256,-198 2644.7256,-162 2773.2744,-162 2773.2744,-198"/>
<text text-anchor="middle" x="2709" y="-175.8" font-family="Times,serif" font-size="14.00" fill="#000000">AppRoutingModule</text>
</g>
<!-- AppRoutingModule&#45;&gt;AppModule -->
<g id="edge6" class="edge">
<title>AppRoutingModule&#45;&gt;AppModule</title>
<path fill="none" stroke="#000000" d="M2755.6368,-198.2377C2755.6368,-198.2377 2755.6368,-295.9104 2755.6368,-295.9104"/>
<polygon fill="#000000" stroke="#000000" points="2752.1368,-295.9103 2755.6368,-305.9104 2759.1368,-295.9104 2752.1368,-295.9103"/>
</g>
<!-- JournalContainerComponent -->
<g id="node9" class="node">
<title>JournalContainerComponent</title>
<polygon fill="#ffffb3" stroke="#000000" points="2664.7506,-122 2487.2494,-122 2487.2494,-86 2664.7506,-86 2664.7506,-122"/>
<text text-anchor="middle" x="2576" y="-99.8" font-family="Times,serif" font-size="14.00" fill="#000000">JournalContainerComponent</text>
</g>
<!-- JournalContainerComponent&#45;&gt;JournalModule -->
<g id="edge8" class="edge">
<title>JournalContainerComponent&#45;&gt;JournalModule</title>
<path fill="none" stroke="#000000" d="M2576,-122.0109C2576,-122.0109 2576,-151.855 2576,-151.855"/>
<polygon fill="#000000" stroke="#000000" points="2572.5001,-151.8549 2576,-161.855 2579.5001,-151.855 2572.5001,-151.8549"/>
</g>
<!-- LocationComponent -->
<g id="node10" class="node">
<title>LocationComponent</title>
<polygon fill="#ffffb3" stroke="#000000" points="4286.5954,-198 4155.4046,-198 4155.4046,-162 4286.5954,-162 4286.5954,-198"/>
<text text-anchor="middle" x="4221" y="-175.8" font-family="Times,serif" font-size="14.00" fill="#000000">LocationComponent</text>
</g>
<!-- LocationModule -->
<g id="node11" class="node">
<title>LocationModule</title>
<polygon fill="#8dd3c7" stroke="#000000" points="4191.8132,-274 4188.8132,-278 4167.8132,-278 4164.8132,-274 4082.1868,-274 4082.1868,-238 4191.8132,-238 4191.8132,-274"/>
<text text-anchor="middle" x="4137" y="-251.8" font-family="Times,serif" font-size="14.00" fill="#000000">LocationModule</text>
</g>
<!-- LocationComponent&#45;&gt;LocationModule -->
<g id="edge9" class="edge">
<title>LocationComponent&#45;&gt;LocationModule</title>
<path fill="none" stroke="#000000" d="M4173.5544,-198.0109C4173.5544,-198.0109 4173.5544,-227.855 4173.5544,-227.855"/>
<polygon fill="#000000" stroke="#000000" points="4170.0544,-227.8549 4173.5544,-237.855 4177.0544,-227.855 4170.0544,-227.8549"/>
</g>
<!-- LocationComponent  -->
<g id="node14" class="node">
<title>LocationComponent </title>
<polygon fill="#fb8072" stroke="#000000" points="4204.096,-342 4069.904,-342 4069.904,-306 4204.096,-306 4204.096,-342"/>
<text text-anchor="middle" x="4137" y="-319.8" font-family="Times,serif" font-size="14.00" fill="#000000">LocationComponent </text>
</g>
<!-- LocationModule&#45;&gt;LocationComponent  -->
<g id="edge12" class="edge">
<title>LocationModule&#45;&gt;LocationComponent </title>
<path fill="none" stroke="#000000" stroke-dasharray="5,2" d="M4137,-274.2228C4137,-274.2228 4137,-295.7269 4137,-295.7269"/>
<polygon fill="#000000" stroke="#000000" points="4133.5001,-295.7269 4137,-305.7269 4140.5001,-295.727 4133.5001,-295.7269"/>
</g>
<!-- LocationApi -->
<g id="node12" class="node">
<title>LocationApi</title>
<ellipse fill="#fdb462" stroke="#000000" cx="4221" cy="-104" rx="59.6916" ry="18"/>
<text text-anchor="middle" x="4221" y="-99.8" font-family="Times,serif" font-size="14.00" fill="#000000">LocationApi</text>
</g>
<!-- LocationApi&#45;&gt;LocationComponent -->
<g id="edge10" class="edge">
<title>LocationApi&#45;&gt;LocationComponent</title>
<path fill="none" stroke="#000000" d="M4221,-122.0109C4221,-122.0109 4221,-151.855 4221,-151.855"/>
<polygon fill="#000000" stroke="#000000" points="4217.5001,-151.8549 4221,-161.855 4224.5001,-151.855 4217.5001,-151.8549"/>
</g>
<!-- LocationRoutingModule -->
<g id="node13" class="node">
<title>LocationRoutingModule</title>
<polygon fill="#8dd3c7" stroke="#000000" points="4131.4312,-198 4128.4312,-202 4107.4312,-202 4104.4312,-198 3976.5688,-198 3976.5688,-162 4131.4312,-162 4131.4312,-198"/>
<text text-anchor="middle" x="4054" y="-175.8" font-family="Times,serif" font-size="14.00" fill="#000000">LocationRoutingModule</text>
</g>
<!-- LocationRoutingModule&#45;&gt;LocationModule -->
<g id="edge11" class="edge">
<title>LocationRoutingModule&#45;&gt;LocationModule</title>
<path fill="none" stroke="#000000" d="M4106.7795,-198.0109C4106.7795,-198.0109 4106.7795,-227.855 4106.7795,-227.855"/>
<polygon fill="#000000" stroke="#000000" points="4103.2795,-227.8549 4106.7795,-237.855 4110.2795,-227.855 4103.2795,-227.8549"/>
</g>
<!-- MarketTableComponent -->
<g id="node15" class="node">
<title>MarketTableComponent</title>
<polygon fill="#ffffb3" stroke="#000000" points="985.6302,-198 832.3698,-198 832.3698,-162 985.6302,-162 985.6302,-198"/>
<text text-anchor="middle" x="909" y="-175.8" font-family="Times,serif" font-size="14.00" fill="#000000">MarketTableComponent</text>
</g>
<!-- MarketTableComponent&#45;&gt;MarketModule -->
<g id="edge13" class="edge">
<title>MarketTableComponent&#45;&gt;MarketModule</title>
<path fill="none" stroke="#000000" d="M909,-198.0267C909,-218.7672 909,-250 909,-250 909,-250 2515.6558,-250 2515.6558,-250"/>
<polygon fill="#000000" stroke="#000000" points="2515.6559,-253.5001 2525.6558,-250 2515.6558,-246.5001 2515.6559,-253.5001"/>
</g>
<!-- MarketToolbarComponent -->
<g id="node16" class="node">
<title>MarketToolbarComponent</title>
<polygon fill="#ffffb3" stroke="#000000" points="814.0758,-198 647.9242,-198 647.9242,-162 814.0758,-162 814.0758,-198"/>
<text text-anchor="middle" x="731" y="-175.8" font-family="Times,serif" font-size="14.00" fill="#000000">MarketToolbarComponent</text>
</g>
<!-- MarketToolbarComponent&#45;&gt;MarketModule -->
<g id="edge14" class="edge">
<title>MarketToolbarComponent&#45;&gt;MarketModule</title>
<path fill="none" stroke="#000000" d="M731,-198.2921C731,-220.2057 731,-254 731,-254 731,-254 2515.6938,-254 2515.6938,-254"/>
<polygon fill="#000000" stroke="#000000" points="2515.6939,-257.5001 2525.6938,-254 2515.6938,-250.5001 2515.6939,-257.5001"/>
</g>
<!-- MarketCategoriesComponent -->
<g id="node17" class="node">
<title>MarketCategoriesComponent</title>
<polygon fill="#ffffb3" stroke="#000000" points="1379.6246,-198 1198.3754,-198 1198.3754,-162 1379.6246,-162 1379.6246,-198"/>
<text text-anchor="middle" x="1289" y="-175.8" font-family="Times,serif" font-size="14.00" fill="#000000">MarketCategoriesComponent</text>
</g>
<!-- MarketCategoriesComponent&#45;&gt;MarketModule -->
<g id="edge15" class="edge">
<title>MarketCategoriesComponent&#45;&gt;MarketModule</title>
<path fill="none" stroke="#000000" d="M1289,-198.2667C1289,-216.5552 1289,-242 1289,-242 1289,-242 2515.9431,-242 2515.9431,-242"/>
<polygon fill="#000000" stroke="#000000" points="2515.9431,-245.5001 2525.9431,-242 2515.943,-238.5001 2515.9431,-245.5001"/>
</g>
<!-- MarketContainerComponent -->
<g id="node18" class="node">
<title>MarketContainerComponent</title>
<polygon fill="#ffffb3" stroke="#000000" points="1180.465,-198 1003.535,-198 1003.535,-162 1180.465,-162 1180.465,-198"/>
<text text-anchor="middle" x="1092" y="-175.8" font-family="Times,serif" font-size="14.00" fill="#000000">MarketContainerComponent</text>
</g>
<!-- MarketContainerComponent&#45;&gt;MarketModule -->
<g id="edge16" class="edge">
<title>MarketContainerComponent&#45;&gt;MarketModule</title>
<path fill="none" stroke="#000000" d="M1092,-198.0348C1092,-217.5762 1092,-246 1092,-246 1092,-246 2515.7743,-246 2515.7743,-246"/>
<polygon fill="#000000" stroke="#000000" points="2515.7744,-249.5001 2525.7743,-246 2515.7743,-242.5001 2515.7744,-249.5001"/>
</g>
<!-- MarketRoutingModule -->
<g id="node19" class="node">
<title>MarketRoutingModule</title>
<polygon fill="#8dd3c7" stroke="#000000" points="623.5926,-198 620.5926,-202 599.5926,-202 596.5926,-198 478.4074,-198 478.4074,-162 623.5926,-162 623.5926,-198"/>
<text text-anchor="middle" x="551" y="-175.8" font-family="Times,serif" font-size="14.00" fill="#000000">MarketRoutingModule</text>
</g>
<!-- MarketRoutingModule&#45;&gt;MarketModule -->
<g id="edge18" class="edge">
<title>MarketRoutingModule&#45;&gt;MarketModule</title>
<path fill="none" stroke="#000000" d="M551,-198.0908C551,-221.1328 551,-258 551,-258 551,-258 2515.9435,-258 2515.9435,-258"/>
<polygon fill="#000000" stroke="#000000" points="2515.9436,-261.5001 2525.9435,-258 2515.9435,-254.5001 2515.9436,-261.5001"/>
</g>
<!-- MarketService -->
<g id="node20" class="node">
<title>MarketService</title>
<ellipse fill="#fdb462" stroke="#000000" cx="386" cy="-180" rx="67.7529" ry="18"/>
<text text-anchor="middle" x="386" y="-175.8" font-family="Times,serif" font-size="14.00" fill="#000000">MarketService</text>
</g>
<!-- MarketService&#45;&gt;MarketModule -->
<g id="edge19" class="edge">
<title>MarketService&#45;&gt;MarketModule</title>
<path fill="none" stroke="#000000" d="M386,-198.1985C386,-222.3563 386,-262 386,-262 386,-262 2515.8814,-262 2515.8814,-262"/>
<polygon fill="#000000" stroke="#000000" points="2515.8814,-265.5001 2525.8814,-262 2515.8814,-258.5001 2515.8814,-265.5001"/>
</g>
<!-- MarketStream -->
<g id="node21" class="node">
<title>MarketStream</title>
<ellipse fill="#fdb462" stroke="#000000" cx="234" cy="-180" rx="66.0473" ry="18"/>
<text text-anchor="middle" x="234" y="-175.8" font-family="Times,serif" font-size="14.00" fill="#000000">MarketStream</text>
</g>
<!-- MarketStream&#45;&gt;MarketModule -->
<g id="edge20" class="edge">
<title>MarketStream&#45;&gt;MarketModule</title>
<path fill="none" stroke="#000000" d="M234,-198.2384C234,-223.4829 234,-266 234,-266 234,-266 2516.0005,-266 2516.0005,-266"/>
<polygon fill="#000000" stroke="#000000" points="2516.0005,-269.5001 2526.0005,-266 2516.0005,-262.5001 2516.0005,-269.5001"/>
</g>
<!-- MarketGuard -->
<g id="node22" class="node">
<title>MarketGuard</title>
<ellipse fill="#fdb462" stroke="#000000" cx="87" cy="-180" rx="63.1015" ry="18"/>
<text text-anchor="middle" x="87" y="-175.8" font-family="Times,serif" font-size="14.00" fill="#000000">MarketGuard</text>
</g>
<!-- MarketGuard&#45;&gt;MarketModule -->
<g id="edge21" class="edge">
<title>MarketGuard&#45;&gt;MarketModule</title>
<path fill="none" stroke="#000000" d="M87,-198.2128C87,-224.5111 87,-270 87,-270 87,-270 2516.0004,-270 2516.0004,-270"/>
<polygon fill="#000000" stroke="#000000" points="2516.0005,-273.5001 2526.0004,-270 2516.0004,-266.5001 2516.0005,-273.5001"/>
</g>
<!-- BadSellPipe -->
<g id="node23" class="node">
<title>BadSellPipe</title>
<polygon fill="#ffffb3" stroke="#000000" points="4419.7177,-122 4334.2823,-122 4334.2823,-86 4419.7177,-86 4419.7177,-122"/>
<text text-anchor="middle" x="4377" y="-99.8" font-family="Times,serif" font-size="14.00" fill="#000000">BadSellPipe</text>
</g>
<!-- MarketPipesModule -->
<g id="node28" class="node">
<title>MarketPipesModule</title>
<polygon fill="#8dd3c7" stroke="#000000" points="4644.3076,-198 4641.3076,-202 4620.3076,-202 4617.3076,-198 4513.6924,-198 4513.6924,-162 4644.3076,-162 4644.3076,-198"/>
<text text-anchor="middle" x="4579" y="-175.8" font-family="Times,serif" font-size="14.00" fill="#000000">MarketPipesModule</text>
</g>
<!-- BadSellPipe&#45;&gt;MarketPipesModule -->
<g id="edge22" class="edge">
<title>BadSellPipe&#45;&gt;MarketPipesModule</title>
<path fill="none" stroke="#000000" d="M4388.3696,-122.0267C4388.3696,-142.7672 4388.3696,-174 4388.3696,-174 4388.3696,-174 4503.6625,-174 4503.6625,-174"/>
<polygon fill="#000000" stroke="#000000" points="4503.6626,-177.5001 4513.6625,-174 4503.6625,-170.5001 4503.6626,-177.5001"/>
</g>
<!-- GetCommoditiesPipe -->
<g id="node24" class="node">
<title>GetCommoditiesPipe</title>
<polygon fill="#ffffb3" stroke="#000000" points="4897.0491,-122 4760.9509,-122 4760.9509,-86 4897.0491,-86 4897.0491,-122"/>
<text text-anchor="middle" x="4829" y="-99.8" font-family="Times,serif" font-size="14.00" fill="#000000">GetCommoditiesPipe</text>
</g>
<!-- GetCommoditiesPipe&#45;&gt;MarketPipesModule -->
<g id="edge23" class="edge">
<title>GetCommoditiesPipe&#45;&gt;MarketPipesModule</title>
<path fill="none" stroke="#000000" d="M4853.5081,-122.0267C4853.5081,-142.7672 4853.5081,-174 4853.5081,-174 4853.5081,-174 4654.4028,-174 4654.4028,-174"/>
<polygon fill="#000000" stroke="#000000" points="4654.4028,-170.5001 4644.4028,-174 4654.4027,-177.5001 4654.4028,-170.5001"/>
</g>
<!-- GoodBuyPipe -->
<g id="node25" class="node">
<title>GoodBuyPipe</title>
<polygon fill="#ffffb3" stroke="#000000" points="4742.8316,-122 4647.1684,-122 4647.1684,-86 4742.8316,-86 4742.8316,-122"/>
<text text-anchor="middle" x="4695" y="-99.8" font-family="Times,serif" font-size="14.00" fill="#000000">GoodBuyPipe</text>
</g>
<!-- GoodBuyPipe&#45;&gt;MarketPipesModule -->
<g id="edge24" class="edge">
<title>GoodBuyPipe&#45;&gt;MarketPipesModule</title>
<path fill="none" stroke="#000000" d="M4647.1766,-104C4640.996,-104 4636.7655,-104 4636.7655,-104 4636.7655,-104 4636.7655,-151.9891 4636.7655,-151.9891"/>
<polygon fill="#000000" stroke="#000000" points="4633.2655,-151.989 4636.7655,-161.9891 4640.2655,-151.9891 4633.2655,-151.989"/>
</g>
<!-- IsDisabledPipe -->
<g id="node26" class="node">
<title>IsDisabledPipe</title>
<polygon fill="#ffffb3" stroke="#000000" points="4629.2549,-122 4528.7451,-122 4528.7451,-86 4629.2549,-86 4629.2549,-122"/>
<text text-anchor="middle" x="4579" y="-99.8" font-family="Times,serif" font-size="14.00" fill="#000000">IsDisabledPipe</text>
</g>
<!-- IsDisabledPipe&#45;&gt;MarketPipesModule -->
<g id="edge25" class="edge">
<title>IsDisabledPipe&#45;&gt;MarketPipesModule</title>
<path fill="none" stroke="#000000" d="M4579,-122.0109C4579,-122.0109 4579,-151.855 4579,-151.855"/>
<polygon fill="#000000" stroke="#000000" points="4575.5001,-151.8549 4579,-161.855 4582.5001,-151.855 4575.5001,-151.8549"/>
</g>
<!-- ProfitPipe -->
<g id="node27" class="node">
<title>ProfitPipe</title>
<polygon fill="#ffffb3" stroke="#000000" points="4510.2732,-122 4437.7268,-122 4437.7268,-86 4510.2732,-86 4510.2732,-122"/>
<text text-anchor="middle" x="4474" y="-99.8" font-family="Times,serif" font-size="14.00" fill="#000000">ProfitPipe</text>
</g>
<!-- ProfitPipe&#45;&gt;MarketPipesModule -->
<g id="edge26" class="edge">
<title>ProfitPipe&#45;&gt;MarketPipesModule</title>
<path fill="none" stroke="#000000" d="M4510.2793,-104C4516.6218,-104 4521.2346,-104 4521.2346,-104 4521.2346,-104 4521.2346,-151.9891 4521.2346,-151.9891"/>
<polygon fill="#000000" stroke="#000000" points="4517.7346,-151.989 4521.2346,-161.9891 4524.7346,-151.9891 4517.7346,-151.989"/>
</g>
<!-- BadSellPipe  -->
<g id="node29" class="node">
<title>BadSellPipe </title>
<polygon fill="#fb8072" stroke="#000000" points="4415.2178,-274 4326.7822,-274 4326.7822,-238 4415.2178,-238 4415.2178,-274"/>
<text text-anchor="middle" x="4371" y="-251.8" font-family="Times,serif" font-size="14.00" fill="#000000">BadSellPipe </text>
</g>
<!-- MarketPipesModule&#45;&gt;BadSellPipe  -->
<g id="edge27" class="edge">
<title>MarketPipesModule&#45;&gt;BadSellPipe </title>
<path fill="none" stroke="#000000" stroke-dasharray="5,2" d="M4513.707,-186C4449.6057,-186 4361.3804,-186 4361.3804,-186 4361.3804,-186 4361.3804,-227.9733 4361.3804,-227.9733"/>
<polygon fill="#000000" stroke="#000000" points="4357.8805,-227.9732 4361.3804,-237.9733 4364.8805,-227.9733 4357.8805,-227.9732"/>
</g>
<!-- GetCommoditiesPipe  -->
<g id="node30" class="node">
<title>GetCommoditiesPipe </title>
<polygon fill="#fb8072" stroke="#000000" points="4906.0484,-274 4765.9516,-274 4765.9516,-238 4906.0484,-238 4906.0484,-274"/>
<text text-anchor="middle" x="4836" y="-251.8" font-family="Times,serif" font-size="14.00" fill="#000000">GetCommoditiesPipe </text>
</g>
<!-- MarketPipesModule&#45;&gt;GetCommoditiesPipe  -->
<g id="edge28" class="edge">
<title>MarketPipesModule&#45;&gt;GetCommoditiesPipe </title>
<path fill="none" stroke="#000000" stroke-dasharray="5,2" d="M4644.1962,-186C4712.4291,-186 4809.7419,-186 4809.7419,-186 4809.7419,-186 4809.7419,-227.9733 4809.7419,-227.9733"/>
<polygon fill="#000000" stroke="#000000" points="4806.242,-227.9732 4809.7419,-237.9733 4813.242,-227.9733 4806.242,-227.9732"/>
</g>
<!-- GoodBuyPipe  -->
<g id="node31" class="node">
<title>GoodBuyPipe </title>
<polygon fill="#fb8072" stroke="#000000" points="4748.3311,-274 4649.6689,-274 4649.6689,-238 4748.3311,-238 4748.3311,-274"/>
<text text-anchor="middle" x="4699" y="-251.8" font-family="Times,serif" font-size="14.00" fill="#000000">GoodBuyPipe </text>
</g>
<!-- MarketPipesModule&#45;&gt;GoodBuyPipe  -->
<g id="edge29" class="edge">
<title>MarketPipesModule&#45;&gt;GoodBuyPipe </title>
<path fill="none" stroke="#000000" stroke-dasharray="5,2" d="M4637.6405,-198.0109C4637.6405,-220.4852 4637.6405,-256 4637.6405,-256 4637.6405,-256 4639.4712,-256 4639.4712,-256"/>
<polygon fill="#000000" stroke="#000000" points="4639.4712,-259.5001 4649.4712,-256 4639.4712,-252.5001 4639.4712,-259.5001"/>
</g>
<!-- IsDisabledPipe  -->
<g id="node32" class="node">
<title>IsDisabledPipe </title>
<polygon fill="#fb8072" stroke="#000000" points="4631.2549,-274 4526.7451,-274 4526.7451,-238 4631.2549,-238 4631.2549,-274"/>
<text text-anchor="middle" x="4579" y="-251.8" font-family="Times,serif" font-size="14.00" fill="#000000">IsDisabledPipe </text>
</g>
<!-- MarketPipesModule&#45;&gt;IsDisabledPipe  -->
<g id="edge30" class="edge">
<title>MarketPipesModule&#45;&gt;IsDisabledPipe </title>
<path fill="none" stroke="#000000" stroke-dasharray="5,2" d="M4579,-198.0109C4579,-198.0109 4579,-227.855 4579,-227.855"/>
<polygon fill="#000000" stroke="#000000" points="4575.5001,-227.8549 4579,-237.855 4582.5001,-227.855 4575.5001,-227.8549"/>
</g>
<!-- ProfitPipe  -->
<g id="node33" class="node">
<title>ProfitPipe </title>
<polygon fill="#fb8072" stroke="#000000" points="4509.2733,-274 4432.7267,-274 4432.7267,-238 4509.2733,-238 4509.2733,-274"/>
<text text-anchor="middle" x="4471" y="-251.8" font-family="Times,serif" font-size="14.00" fill="#000000">ProfitPipe </text>
</g>
<!-- MarketPipesModule&#45;&gt;ProfitPipe  -->
<g id="edge31" class="edge">
<title>MarketPipesModule&#45;&gt;ProfitPipe </title>
<path fill="none" stroke="#000000" stroke-dasharray="5,2" d="M4520.3596,-198.0109C4520.3596,-220.4852 4520.3596,-256 4520.3596,-256 4520.3596,-256 4519.2641,-256 4519.2641,-256"/>
<polygon fill="#000000" stroke="#000000" points="4519.4051,-252.5001 4509.4051,-256 4519.405,-259.5001 4519.4051,-252.5001"/>
</g>
<!-- ArraySortPipe -->
<g id="node34" class="node">
<title>ArraySortPipe</title>
<polygon fill="#ffffb3" stroke="#000000" points="3937.3641,-274 3840.6359,-274 3840.6359,-238 3937.3641,-238 3937.3641,-274"/>
<text text-anchor="middle" x="3889" y="-251.8" font-family="Times,serif" font-size="14.00" fill="#000000">ArraySortPipe</text>
</g>
<!-- ArraySortPipe&#45;&gt;SharedModule -->
<g id="edge32" class="edge">
<title>ArraySortPipe&#45;&gt;SharedModule</title>
<path fill="none" stroke="#000000" d="M3889,-237.7663C3889,-211.9906 3889,-168 3889,-168 3889,-168 2900.4913,-168 2900.4913,-168"/>
<polygon fill="#000000" stroke="#000000" points="2900.4914,-164.5001 2890.4913,-168 2900.4913,-171.5001 2900.4914,-164.5001"/>
</g>
<!-- ArrayReversePipe -->
<g id="node35" class="node">
<title>ArrayReversePipe</title>
<polygon fill="#ffffb3" stroke="#000000" points="3822.1164,-274 3703.8836,-274 3703.8836,-238 3822.1164,-238 3822.1164,-274"/>
<text text-anchor="middle" x="3763" y="-251.8" font-family="Times,serif" font-size="14.00" fill="#000000">ArrayReversePipe</text>
</g>
<!-- ArrayReversePipe&#45;&gt;SharedModule -->
<g id="edge33" class="edge">
<title>ArrayReversePipe&#45;&gt;SharedModule</title>
<path fill="none" stroke="#000000" d="M3763,-237.9902C3763,-213.5793 3763,-173 3763,-173 3763,-173 2900.2448,-173 2900.2448,-173"/>
<polygon fill="#000000" stroke="#000000" points="2900.2448,-169.5001 2890.2448,-173 2900.2447,-176.5001 2900.2448,-169.5001"/>
</g>
<!-- ArrayFromObjectKeysPipe -->
<g id="node36" class="node">
<title>ArrayFromObjectKeysPipe</title>
<polygon fill="#ffffb3" stroke="#000000" points="3685.9468,-274 3516.0532,-274 3516.0532,-238 3685.9468,-238 3685.9468,-274"/>
<text text-anchor="middle" x="3601" y="-251.8" font-family="Times,serif" font-size="14.00" fill="#000000">ArrayFromObjectKeysPipe</text>
</g>
<!-- ArrayFromObjectKeysPipe&#45;&gt;SharedModule -->
<g id="edge34" class="edge">
<title>ArrayFromObjectKeysPipe&#45;&gt;SharedModule</title>
<path fill="none" stroke="#000000" d="M3601,-237.9092C3601,-214.8672 3601,-178 3601,-178 3601,-178 2900.2801,-178 2900.2801,-178"/>
<polygon fill="#000000" stroke="#000000" points="2900.2802,-174.5001 2890.2801,-178 2900.2801,-181.5001 2900.2802,-174.5001"/>
</g>
<!-- PipDisplayPipe -->
<g id="node40" class="node">
<title>PipDisplayPipe</title>
<polygon fill="#ffffb3" stroke="#000000" points="2160.6081,-198 2057.3919,-198 2057.3919,-162 2160.6081,-162 2160.6081,-198"/>
<text text-anchor="middle" x="2109" y="-175.8" font-family="Times,serif" font-size="14.00" fill="#000000">PipDisplayPipe</text>
</g>
<!-- PipDisplayPipe&#45;&gt;StatusModule -->
<g id="edge38" class="edge">
<title>PipDisplayPipe&#45;&gt;StatusModule</title>
<path fill="none" stroke="#000000" d="M2109,-198.2434C2109,-205.4297 2109,-212 2109,-212 2109,-212 2702.9088,-212 2702.9088,-212 2702.9088,-212 2702.9088,-227.8495 2702.9088,-227.8495"/>
<polygon fill="#000000" stroke="#000000" points="2699.4089,-227.8494 2702.9088,-237.8495 2706.4089,-227.8495 2699.4089,-227.8494"/>
</g>
<!-- StatusContainerComponent -->
<g id="node41" class="node">
<title>StatusContainerComponent</title>
<polygon fill="#ffffb3" stroke="#000000" points="2039.2632,-198 1868.7368,-198 1868.7368,-162 2039.2632,-162 2039.2632,-198"/>
<text text-anchor="middle" x="1954" y="-175.8" font-family="Times,serif" font-size="14.00" fill="#000000">StatusContainerComponent</text>
</g>
<!-- StatusContainerComponent&#45;&gt;StatusModule -->
<g id="edge39" class="edge">
<title>StatusContainerComponent&#45;&gt;StatusModule</title>
<path fill="none" stroke="#000000" d="M1954,-198.4218C1954,-207.2791 1954,-216 1954,-216 1954,-216 2691.2497,-216 2691.2497,-216 2691.2497,-216 2691.2497,-227.8726 2691.2497,-227.8726"/>
<polygon fill="#000000" stroke="#000000" points="2687.7497,-227.8725 2691.2497,-237.8726 2694.7497,-227.8726 2687.7497,-227.8725"/>
</g>
<!-- PipsDisplayComponent -->
<g id="node42" class="node">
<title>PipsDisplayComponent</title>
<polygon fill="#ffffb3" stroke="#000000" points="2486.4972,-198 2337.5028,-198 2337.5028,-162 2486.4972,-162 2486.4972,-198"/>
<text text-anchor="middle" x="2412" y="-175.8" font-family="Times,serif" font-size="14.00" fill="#000000">PipsDisplayComponent</text>
</g>
<!-- PipsDisplayComponent&#45;&gt;StatusModule -->
<g id="edge40" class="edge">
<title>PipsDisplayComponent&#45;&gt;StatusModule</title>
<path fill="none" stroke="#000000" d="M2412,-198.1223C2412,-200.9729 2412,-203 2412,-203 2412,-203 2726.2272,-203 2726.2272,-203 2726.2272,-203 2726.2272,-227.7604 2726.2272,-227.7604"/>
<polygon fill="#000000" stroke="#000000" points="2722.7273,-227.7604 2726.2272,-237.7604 2729.7273,-227.7604 2722.7273,-227.7604"/>
</g>
<!-- ShipStatusComponent -->
<g id="node43" class="node">
<title>ShipStatusComponent</title>
<polygon fill="#ffffb3" stroke="#000000" points="2319.7288,-198 2178.2712,-198 2178.2712,-162 2319.7288,-162 2319.7288,-198"/>
<text text-anchor="middle" x="2249" y="-175.8" font-family="Times,serif" font-size="14.00" fill="#000000">ShipStatusComponent</text>
</g>
<!-- ShipStatusComponent&#45;&gt;StatusModule -->
<g id="edge41" class="edge">
<title>ShipStatusComponent&#45;&gt;StatusModule</title>
<path fill="none" stroke="#000000" d="M2249,-198.1592C2249,-203.0433 2249,-207 2249,-207 2249,-207 2714.568,-207 2714.568,-207 2714.568,-207 2714.568,-227.7542 2714.568,-227.7542"/>
<polygon fill="#000000" stroke="#000000" points="2711.0681,-227.7542 2714.568,-237.7542 2718.0681,-227.7542 2711.0681,-227.7542"/>
</g>
<!-- StatusRoutingModule -->
<g id="node44" class="node">
<title>StatusRoutingModule</title>
<polygon fill="#8dd3c7" stroke="#000000" points="1845.3906,-198 1842.3906,-202 1821.3906,-202 1818.3906,-198 1706.6094,-198 1706.6094,-162 1845.3906,-162 1845.3906,-198"/>
<text text-anchor="middle" x="1776" y="-175.8" font-family="Times,serif" font-size="14.00" fill="#000000">StatusRoutingModule</text>
</g>
<!-- StatusRoutingModule&#45;&gt;StatusModule -->
<g id="edge42" class="edge">
<title>StatusRoutingModule&#45;&gt;StatusModule</title>
<path fill="none" stroke="#000000" d="M1776,-198.1025C1776,-209.0859 1776,-221 1776,-221 1776,-221 2679.5905,-221 2679.5905,-221 2679.5905,-221 2679.5905,-227.68 2679.5905,-227.68"/>
<polygon fill="#000000" stroke="#000000" points="2676.0906,-227.6799 2679.5905,-237.68 2683.0906,-227.68 2676.0906,-227.6799"/>
</g>
<!-- StatusService -->
<g id="node45" class="node">
<title>StatusService</title>
<ellipse fill="#fdb462" stroke="#000000" cx="1619" cy="-180" rx="63.6967" ry="18"/>
<text text-anchor="middle" x="1619" y="-175.8" font-family="Times,serif" font-size="14.00" fill="#000000">StatusService</text>
</g>
<!-- StatusService&#45;&gt;StatusModule -->
<g id="edge44" class="edge">
<title>StatusService&#45;&gt;StatusModule</title>
<path fill="none" stroke="#000000" d="M1619,-198.0439C1619,-210.5633 1619,-225 1619,-225 1619,-225 2667.9313,-225 2667.9313,-225 2667.9313,-225 2667.9313,-227.9672 2667.9313,-227.9672"/>
<polygon fill="#000000" stroke="#000000" points="2664.4314,-227.9671 2667.9313,-237.9672 2671.4314,-227.9672 2664.4314,-227.9671"/>
</g>
<!-- StatusGuard -->
<g id="node46" class="node">
<title>StatusGuard</title>
<ellipse fill="#fdb462" stroke="#000000" cx="1479" cy="-180" rx="58.5463" ry="18"/>
<text text-anchor="middle" x="1479" y="-175.8" font-family="Times,serif" font-size="14.00" fill="#000000">StatusGuard</text>
</g>
<!-- StatusGuard&#45;&gt;StatusModule -->
<g id="edge45" class="edge">
<title>StatusGuard&#45;&gt;StatusModule</title>
<path fill="none" stroke="#000000" d="M1479,-198.0511C1479,-212.373 1479,-230 1479,-230 1479,-230 2656.2721,-230 2656.2721,-230 2656.2721,-230 2656.2721,-230.7942 2656.2721,-230.7942"/>
<polygon fill="#000000" stroke="#000000" points="2652.7722,-227.9421 2656.2721,-237.9421 2659.7722,-227.9422 2652.7722,-227.9421"/>
</g>
</g>
</svg>
